<svg width="56" height="57" viewBox="0 0 56 57" fill="none" xmlns="http://www.w3.org/2000/svg">
<g clip-path="url(#clip0_3_614)">
<path d="M31.7333 49.325C22.4 53.4083 11.4917 49.15 7.40834 39.8166C3.32501 30.4833 7.58334 19.575 16.9167 15.4916C21.5833 13.45 26.6583 13.5083 31.0333 15.2L32.9583 10.2416C27.3 8.02497 20.7667 7.96664 14.7583 10.5916C2.74167 15.8416 -2.74166 29.9 2.50834 41.9166C7.75834 53.9333 21.8167 59.4166 33.8333 54.1666C45.85 48.9166 51.3333 34.8583 46.0833 22.8416L41.2417 25C45.325 34.3333 41.0667 45.2416 31.7333 49.325Z" fill="#FF543D"/>
<path d="M38.85 7.26668C43.2833 8.95835 47.0167 12.4 49.0583 17.0667L53.9 14.9084C51.275 8.90002 46.4917 4.52502 40.775 2.30835L38.85 7.26668Z" fill="#85BCBD"/>
<path d="M48.475 18.5834L48.0083 17.5334C46.1417 13.2751 42.7583 10.0667 38.4417 8.37508L37.3333 7.90841L40.1333 0.791748L41.2417 1.20008C47.425 3.65008 52.325 8.31675 55.0083 14.4417L55.475 15.4917L48.475 18.5834ZM40.3667 6.62508C44.3917 8.49175 47.6 11.5834 49.6417 15.5501L52.3833 14.3834C50.05 9.71675 46.2583 6.04175 41.475 3.88341L40.3667 6.62508Z" fill="#2E2E2E"/>
<path d="M49.0583 17.0666C47.0167 12.3999 43.2833 9.0166 38.85 7.2666L32.1417 24.4749L49.0583 17.0666Z" fill="#FF543D"/>
<path d="M30.0417 26.6917L38.2083 5.75L39.3167 6.15833C44.2167 8.08333 48.0667 11.7583 50.1667 16.6L50.6333 17.65L30.0417 26.6917ZM39.4917 8.78333L34.2417 22.2583L47.4833 16.4833C45.7333 13.1 42.9333 10.4167 39.4917 8.78333Z" fill="#2E2E2E"/>
<path d="M24.325 52.0665C16.7417 52.0665 9.50832 47.6915 6.29998 40.2832C1.92498 30.3665 6.47498 18.7582 16.3917 14.3832C21.175 12.2832 26.5417 12.1665 31.4417 14.0915L32.55 14.4999L26.425 30.1915L41.825 23.4249L42.2917 24.4749C44.3917 29.2582 44.5083 34.6249 42.5833 39.5249C40.6583 44.4249 36.9833 48.2749 32.1417 50.3749C29.6333 51.5415 27.0083 52.0665 24.325 52.0665ZM8.45832 39.3499C12.3083 48.0999 22.5167 52.0665 31.2667 48.2749C35.525 46.4082 38.7333 43.0249 40.425 38.7082C41.9417 34.7415 42 30.4832 40.6 26.5749L22.225 34.6249L29.5167 15.8999C25.55 14.6165 21.2333 14.8499 17.3833 16.5415C8.63332 20.3915 4.66665 30.5999 8.45832 39.3499Z" fill="#2E2E2E"/>
<path d="M17.9083 45.0084C19.5192 45.0084 20.825 43.7025 20.825 42.0917C20.825 40.4809 19.5192 39.175 17.9083 39.175C16.2975 39.175 14.9917 40.4809 14.9917 42.0917C14.9917 43.7025 16.2975 45.0084 17.9083 45.0084Z" fill="#85BCBD"/>
<path d="M17.9083 46.175C16.3333 46.175 14.8167 45.2417 14.1167 43.725C13.65 42.7334 13.65 41.625 14.0583 40.575C14.4667 39.525 15.225 38.7667 16.2167 38.3C17.2083 37.8334 18.3167 37.8334 19.3667 38.2417C20.4167 38.65 21.175 39.4084 21.6417 40.4C22.1083 41.3917 22.1083 42.5 21.7 43.55C21.2917 44.6 20.5333 45.3584 19.5417 45.825C19.0167 46.0584 18.4333 46.175 17.9083 46.175ZM17.9083 40.2834C17.675 40.2834 17.4417 40.3417 17.2083 40.4584C16.8 40.6334 16.45 40.9834 16.275 41.45C16.1 41.9167 16.1 42.3834 16.275 42.7917C16.6833 43.6667 17.7333 44.075 18.6083 43.725C19.0167 43.55 19.3667 43.2 19.5417 42.7334C19.7167 42.2667 19.7167 41.8 19.5417 41.3917C19.3667 40.9834 19.0167 40.6334 18.55 40.4584C18.3167 40.3417 18.0833 40.2834 17.9083 40.2834Z" fill="#85BCBD"/>
<path d="M15.9833 26.6333C17.4009 26.6333 18.55 25.4842 18.55 24.0667C18.55 22.6491 17.4009 21.5 15.9833 21.5C14.5658 21.5 13.4167 22.6491 13.4167 24.0667C13.4167 25.4842 14.5658 26.6333 15.9833 26.6333Z" fill="#85BCBD"/>
<path d="M15.9833 27.8C15.5167 27.8 15.05 27.7416 14.6417 27.5666C13.7083 27.2166 13.0083 26.5166 12.6 25.5833C12.1917 24.65 12.1917 23.6583 12.5417 22.725C12.8917 21.7916 13.5917 21.0916 14.525 20.6833C16.3917 19.8666 18.6083 20.7416 19.425 22.6083C20.2417 24.475 19.3667 26.6916 17.5 27.5083C17.0333 27.6833 16.5083 27.8 15.9833 27.8ZM15.9833 22.725C15.8083 22.725 15.6333 22.7833 15.4583 22.8416C15.1083 23.0166 14.875 23.25 14.7 23.6C14.5833 23.95 14.5833 24.3 14.7 24.65C14.8167 25 15.1083 25.2333 15.4583 25.4083C15.8083 25.525 16.1583 25.525 16.5083 25.4083C17.2083 25.1166 17.5 24.3 17.2083 23.6C17.0333 23.0166 16.5083 22.725 15.9833 22.725Z" fill="#85BCBD"/>
<path d="M32.9584 44.3667C32.4917 44.3667 32.0834 44.3084 31.6167 44.1334C30.6834 43.7834 29.9834 43.0834 29.575 42.2084L31.7334 41.2751C31.85 41.6251 32.1417 41.8584 32.4334 41.9751C32.7834 42.0917 33.1334 42.0917 33.425 41.9751C34.0667 41.6834 34.4167 40.9251 34.125 40.2251L36.2834 39.2917C37.1 41.1584 36.225 43.3167 34.4167 44.1334C33.95 44.3084 33.4834 44.3667 32.9584 44.3667ZM40.5417 18.1167C39.1417 18.1167 37.8 17.3001 37.1584 15.9001L39.3167 14.9667C39.6084 15.6084 40.3667 15.9584 41.0667 15.6667C41.7084 15.3751 42.0584 14.6167 41.7667 13.9167L43.925 12.9834C44.7417 14.8501 43.8667 17.0084 42.0584 17.8251C41.5334 18.0584 41.0667 18.1167 40.5417 18.1167Z" fill="#2E2E2E"/>
<path d="M10.8683 33.9205L8.54575 33.6975L8.37852 35.4395L10.7011 35.6624L10.8683 33.9205Z" fill="#2E2E2E"/>
<path d="M13.5333 38.7083L11.2583 38.2416C11.375 37.6 11.6667 36.9583 12.075 36.4333L13.9416 37.8333C13.7083 38.125 13.5916 38.4166 13.5333 38.7083ZM16.45 33.575L14.525 32.2333C14.8166 31.7667 15.225 31.4167 15.6916 31.0667L17.0333 32.9916C16.8 33.1083 16.625 33.3416 16.45 33.575Z" fill="#2E2E2E"/>
<path d="M23.1209 27.3707L21.0125 26.3711L20.4877 27.478L22.5961 28.4776L23.1209 27.3707Z" fill="#2E2E2E"/>
<path d="M42.0446 11.4372L39.9349 10.4404L39.4116 11.548L41.5213 12.5448L42.0446 11.4372Z" fill="#2E2E2E"/>
<path d="M26.0167 21.2667L23.6833 20.8584C23.8 20.2751 24.0333 19.6917 24.3833 19.2251L26.3083 20.5667C26.1333 20.7417 26.075 21.0334 26.0167 21.2667ZM21.7583 19.6917L19.4833 19.0501C19.6583 18.4667 19.95 17.8834 20.4167 17.4167L22.1083 19.0501C21.9917 19.2251 21.8167 19.4584 21.7583 19.6917ZM9.44999 28.3251C9.21665 27.6834 9.21665 26.9834 9.56665 26.3417L11.6667 27.4501L9.44999 28.3251Z" fill="#2E2E2E"/>
<path d="M23.6113 38.381L22.6758 36.2434L21.7673 36.641L22.7028 38.7786L23.6113 38.381Z" fill="#2E2E2E"/>
<path d="M26.1502 42.9433L25.2126 40.8066L24.3045 41.2051L25.2421 43.3418L26.1502 42.9433Z" fill="#2E2E2E"/>
<path d="M24.9236 47.3403L24.4577 45.054L23.0287 45.3452L23.4947 47.6315L24.9236 47.3403Z" fill="#2E2E2E"/>
<path d="M31.3694 46.5832L30.115 44.6157L28.4918 45.6506L29.7462 47.6181L31.3694 46.5832Z" fill="#2E2E2E"/>
<path d="M26.775 38.3583C26.775 37.5416 27.125 36.7833 27.7667 36.3167L29.225 38.1833C29.1667 38.1833 29.1667 38.2416 29.1667 38.3L26.775 38.3583Z" fill="#2E2E2E"/>
<path d="M33.0205 32.8021L31.7057 30.8745L30.5009 31.6963L31.8157 33.6239L33.0205 32.8021Z" fill="#2E2E2E"/>
<path d="M34.0084 38.0667L33.3667 35.7917C33.5417 35.7333 33.775 35.6167 33.8917 35.5L35.4084 37.3083C35 37.6583 34.5334 37.8917 34.0084 38.0667Z" fill="#2E2E2E"/>
<path d="M39.4255 32.0583L37.7326 30.4524L36.4078 31.849L38.1006 33.4548L39.4255 32.0583Z" fill="#2E2E2E"/>
<path d="M20.6929 33.95L18.6458 32.8301L18.2539 33.5465L20.3009 34.6664L20.6929 33.95Z" fill="#2E2E2E"/>
<path d="M38.612 19.0258L36.5654 17.905L36.1732 18.6213L38.2197 19.7421L38.612 19.0258Z" fill="#2E2E2E"/>
</g>
<defs>
<clipPath id="clip0_3_614">
<rect width="56" height="56" fill="white" transform="translate(0 0.5)"/>
</clipPath>
</defs>
</svg>
