<svg width="56" height="57" viewBox="0 0 56 57" fill="none" xmlns="http://www.w3.org/2000/svg">
<g clip-path="url(#clip0_3_579)">
<path d="M11.4917 49.9667C10.9084 49.4417 10.325 48.8 9.80002 48.2167L11.55 46.7C12.0167 47.225 12.5417 47.8083 13.0667 48.275L11.4917 49.9667ZM7.64169 45.3C7.23336 44.6 6.82502 43.9 6.41669 43.2L8.45836 42.15C8.80836 42.7917 9.15836 43.4333 9.56669 44.075L7.64169 45.3ZM5.07502 39.8167C4.84169 39.0584 4.60836 38.2417 4.43336 37.4833L6.70836 37.0167C6.88336 37.7167 7.05836 38.4167 7.29169 39.1167L5.07502 39.8167ZM3.96669 33.8667C3.90836 33.3417 3.90836 32.875 3.90836 32.35C3.90836 32.0583 3.90836 31.7667 3.90836 31.4167L6.24169 31.5333C6.24169 31.825 6.24169 32.0583 6.24169 32.35C6.24169 32.8167 6.24169 33.2833 6.30002 33.6917L3.96669 33.8667ZM6.59169 28.2667L4.31669 27.8583C4.49169 27.0417 4.66669 26.2833 4.90002 25.525L7.11669 26.1667C6.88336 26.8667 6.70836 27.5667 6.59169 28.2667ZM8.28336 23.075L6.18336 22.0833C6.53336 21.3833 6.88336 20.625 7.35002 19.925L9.33336 21.0917C8.92502 21.7917 8.57502 22.4333 8.28336 23.075ZM45.3834 49.0917L43.75 47.4583C44.275 46.9333 44.7417 46.35 45.2084 45.825L47.0167 47.225C46.4917 47.8667 45.9667 48.5084 45.3834 49.0917ZM49 44.1917L47.0167 43.0833C47.3667 42.4417 47.7167 41.8 48.0084 41.1L50.1084 42.0333C49.7584 42.7917 49.4084 43.4917 49 44.1917ZM51.275 38.65L49.0584 38.0667C49.2334 37.3667 49.4084 36.6667 49.525 35.9083L51.8 36.2583C51.6834 37.0167 51.5084 37.8334 51.275 38.65ZM52.0917 32.6417H49.7584V32.4083C49.7584 31.7667 49.7 31.0667 49.6417 30.425L51.9167 30.1917C51.975 30.8917 52.0334 31.65 52.0334 32.35L52.0917 32.6417ZM49.175 27.1583C49 26.4583 48.7667 25.7583 48.5334 25.0583L50.6917 24.3C50.9834 25.0583 51.2167 25.8167 51.3917 26.6333L49.175 27.1583ZM47.1917 22.0833C46.8417 21.4417 46.4917 20.8 46.0834 20.2167L48.0084 18.9333C48.475 19.575 48.8834 20.275 49.2917 21.0333L47.1917 22.0833Z" fill="#2E2E2E"/>
<path d="M12.8917 1.95825H43.1083L47.0167 9.71659H8.98332L12.8917 1.95825Z" fill="#85BCBD"/>
<path d="M48.9417 10.8834H7.11668L12.1917 0.791748H43.8667L48.9417 10.8834ZM10.85 8.55008H45.2084L42.4667 3.06675H13.65L10.85 8.55008Z" fill="#2E2E2E"/>
<path d="M16.8 55.0416H39.2L40.6 44.0166H15.4L16.8 55.0416Z" fill="white"/>
<path d="M40.25 56.2084H15.75L14.1167 42.8501H41.9417L40.25 56.2084ZM17.7917 53.8751H38.2084L39.3167 45.1251H16.6834L17.7917 53.8751Z" fill="#2E2E2E"/>
<path d="M44.8583 9.71655H11.1417L12.4833 20.7416H43.5167L44.8583 9.71655Z" fill="white"/>
<path d="M44.5083 21.9084H11.4917L9.85832 8.55005H46.2L44.5083 21.9084ZM13.5333 19.5751H42.4667L43.575 10.825H12.425L13.5333 19.5751Z" fill="#2E2E2E"/>
<path d="M12.4834 20.7417L15.4 44.0167H40.6L43.5167 20.7417H12.4834Z" fill="#FF543D"/>
<path d="M41.5917 45.1833H14.4084L11.2 19.6333H44.8L41.5917 45.1833ZM16.3917 42.85H39.55L42.175 21.9083H13.825L16.3917 42.85Z" fill="#FF543D"/>
<path d="M28 40.3418C31.5116 40.3418 34.3583 36.7899 34.3583 32.4084C34.3583 28.027 31.5116 24.4751 28 24.4751C24.4884 24.4751 21.6417 28.027 21.6417 32.4084C21.6417 36.7899 24.4884 40.3418 28 40.3418Z" fill="white"/>
<path d="M28 41.45C23.8583 41.45 20.475 37.3667 20.475 32.35C20.475 27.3333 23.8583 23.3083 28 23.3083C32.1417 23.3083 35.525 27.3917 35.525 32.4084C35.525 37.425 32.1417 41.45 28 41.45ZM28 25.5834C25.1417 25.5834 22.8083 28.6167 22.8083 32.35C22.8083 36.0834 25.1417 39.1167 28 39.1167C30.8583 39.1167 33.1917 36.0834 33.1917 32.35C33.1917 28.6167 30.8583 25.5834 28 25.5834Z" fill="#2E2E2E"/>
<path d="M27.475 40.5749C26.8333 38.9416 26.775 37.1916 27.2417 35.4999C27.3583 35.0916 27.5333 34.6833 27.65 34.3333C27.825 33.8083 28 33.3416 28.1167 32.9333C28.2333 32.1749 28.1167 31.2999 27.7667 30.4249C27.4167 29.5499 26.8333 28.675 26.25 27.8583C25.9 27.3916 25.6083 26.8666 25.375 26.2833C25.0833 25.4666 25.025 24.65 25.3167 23.95L27.475 24.825C27.4167 25 27.4167 25.2333 27.5333 25.4666C27.65 25.8166 27.8833 26.1666 28.175 26.5166C28.8167 27.4499 29.4583 28.4416 29.925 29.5499C30.45 30.8333 30.625 32.1749 30.45 33.3416C30.3333 34.0416 30.1 34.6249 29.8667 35.2083C29.75 35.5583 29.6333 35.8499 29.5167 36.1999C29.1667 37.3666 29.225 38.6499 29.6917 39.7583L27.475 40.5749Z" fill="#2E2E2E"/>
</g>
<defs>
<clipPath id="clip0_3_579">
<rect width="56" height="56" fill="white" transform="translate(0 0.5)"/>
</clipPath>
</defs>
</svg>
