<svg width="42" height="37" viewBox="0 0 42 37" fill="none" xmlns="http://www.w3.org/2000/svg">
<path d="M37.9953 21.7344L41.3 7.10938C41.511 6.05469 40.7375 5 39.6125 5H12.05L11.4172 1.90625C11.2063 1.13281 10.5031 0.5 9.72971 0.5H2.55783C1.57346 0.5 0.870331 1.27344 0.870331 2.1875V3.3125C0.870331 4.29688 1.57346 5 2.55783 5H7.40939L12.4016 29.1875C11.2063 29.8906 10.4328 31.1562 10.4328 32.5625C10.4328 34.7422 12.1906 36.5 14.3703 36.5C16.4797 36.5 18.3078 34.7422 18.3078 32.5625C18.3078 31.5078 17.8156 30.5234 17.1125 29.75H31.8078C31.1047 30.5234 30.6828 31.5078 30.6828 32.5625C30.6828 34.7422 32.4406 36.5 34.6203 36.5C36.7297 36.5 38.5578 34.7422 38.5578 32.5625C38.5578 31.0156 37.6438 29.6797 36.3078 29.0469L36.6594 27.3594C36.9406 26.3047 36.0969 25.25 35.0422 25.25H16.1985L15.7063 23H36.3078C37.0813 23 37.7844 22.5078 37.9953 21.7344Z" fill="#FF543D"/>
</svg>
