<svg width="22" height="20" viewBox="0 0 22 20" fill="none" xmlns="http://www.w3.org/2000/svg">
<path fill-rule="evenodd" clip-rule="evenodd" d="M5.60134 0C2.72813 0 0.398926 2.23857 0.398926 5V15C0.398926 17.7614 2.72813 20 5.60134 20H16.0062C18.8793 20 21.2086 17.7614 21.2086 15V5C21.2086 2.23857 18.8793 0 16.0062 0H5.60134ZM18.2264 6.50889C18.7343 6.02072 18.7343 5.22928 18.2264 4.74111C17.7186 4.25296 16.895 4.25296 16.3871 4.74111L8.20255 12.6073L5.22041 9.74111C4.71248 9.25296 3.88899 9.25296 3.38107 9.74111C2.87316 10.2293 2.87316 11.0207 3.38107 11.5089L7.28288 15.2589L8.20255 16.1427L9.12222 15.2589L18.2264 6.50889Z" fill="#056365"/>
</svg>
