<svg width="19" height="15" viewBox="0 0 19 15" fill="none" xmlns="http://www.w3.org/2000/svg">
<path d="M18.5452 4.61007C18.3131 3.64525 17.9361 2.84766 17.2689 2.21731C16.3262 1.29107 15.0934 0.84082 13.6286 0.84082H13.4401C11.8882 0.879413 10.612 1.43258 9.71278 2.436C9.3792 2.10153 8.95861 1.76705 8.48001 1.50977C7.53731 1.00806 6.44957 0.802227 5.21681 0.879413C3.85351 1.00806 2.76578 1.54836 1.9536 2.436C1.09792 3.43942 0.677326 4.57148 0.720836 5.74214C0.764345 6.83561 1.14143 7.83903 1.85208 8.80385C2.64975 9.89732 3.65047 10.7335 4.54966 11.4025C5.82594 12.4059 7.29075 13.2935 9.13265 14.2069C9.32119 14.2969 9.46622 14.3355 9.65476 14.3355C9.8433 14.3355 9.98834 14.2969 10.1769 14.2069C11.7867 13.4093 13.1935 12.5731 14.4698 11.6083C15.7896 10.6435 16.7323 9.71722 17.4865 8.7138C18.5017 7.4145 18.8207 6.07661 18.5452 4.61007Z" fill="#FF543D"/>
</svg>
