<svg width="114" height="19" viewBox="0 0 114 19" fill="none" xmlns="http://www.w3.org/2000/svg">
<path d="M4.592 4.44V7.848H10.088V11.016H4.592V14.712H10.808V18H0.488V1.152H10.808V4.44H4.592ZM12.6564 11.28C12.6564 9.904 12.9124 8.696 13.4244 7.656C13.9524 6.616 14.6644 5.816 15.5604 5.256C16.4564 4.696 17.4564 4.416 18.5604 4.416C19.5044 4.416 20.3284 4.608 21.0324 4.992C21.7524 5.376 22.3044 5.88 22.6884 6.504V4.608H26.7924V18H22.6884V16.104C22.2884 16.728 21.7284 17.232 21.0084 17.616C20.3044 18 19.4804 18.192 18.5364 18.192C17.4484 18.192 16.4564 17.912 15.5604 17.352C14.6644 16.776 13.9524 15.968 13.4244 14.928C12.9124 13.872 12.6564 12.656 12.6564 11.28ZM22.6884 11.304C22.6884 10.28 22.4004 9.472 21.8244 8.88C21.2644 8.288 20.5764 7.992 19.7604 7.992C18.9444 7.992 18.2484 8.288 17.6724 8.88C17.1124 9.456 16.8324 10.256 16.8324 11.28C16.8324 12.304 17.1124 13.12 17.6724 13.728C18.2484 14.32 18.9444 14.616 19.7604 14.616C20.5764 14.616 21.2644 14.32 21.8244 13.728C22.4004 13.136 22.6884 12.328 22.6884 11.304ZM37.2254 14.52V18H35.1374C33.6494 18 32.4894 17.64 31.6574 16.92C30.8254 16.184 30.4094 14.992 30.4094 13.344V8.016H28.7774V4.608H30.4094V1.344H34.5134V4.608H37.2014V8.016H34.5134V13.392C34.5134 13.792 34.6094 14.08 34.8014 14.256C34.9934 14.432 35.3134 14.52 35.7614 14.52H37.2254Z" fill="#FF543D"/>
<path d="M45.6074 18.168C44.3754 18.168 43.2714 17.968 42.2954 17.568C41.3194 17.168 40.5354 16.576 39.9434 15.792C39.3674 15.008 39.0634 14.064 39.0314 12.96H43.3994C43.4634 13.584 43.6794 14.064 44.0474 14.4C44.4154 14.72 44.8954 14.88 45.4874 14.88C46.0954 14.88 46.5754 14.744 46.9274 14.472C47.2794 14.184 47.4554 13.792 47.4554 13.296C47.4554 12.88 47.3114 12.536 47.0234 12.264C46.7514 11.992 46.4074 11.768 45.9914 11.592C45.5914 11.416 45.0154 11.216 44.2634 10.992C43.1754 10.656 42.2874 10.32 41.5994 9.984C40.9114 9.648 40.3194 9.152 39.8234 8.496C39.3274 7.84 39.0794 6.984 39.0794 5.928C39.0794 4.36 39.6474 3.136 40.7834 2.256C41.9194 1.36 43.3994 0.912 45.2234 0.912C47.0794 0.912 48.5754 1.36 49.7114 2.256C50.8474 3.136 51.4554 4.368 51.5354 5.952H47.0954C47.0634 5.408 46.8634 4.984 46.4954 4.68C46.1274 4.36 45.6554 4.2 45.0794 4.2C44.5834 4.2 44.1834 4.336 43.8794 4.608C43.5754 4.864 43.4234 5.24 43.4234 5.736C43.4234 6.28 43.6794 6.704 44.1914 7.008C44.7034 7.312 45.5034 7.64 46.5914 7.992C47.6794 8.36 48.5594 8.712 49.2314 9.048C49.9194 9.384 50.5114 9.872 51.0074 10.512C51.5034 11.152 51.7514 11.976 51.7514 12.984C51.7514 13.944 51.5034 14.816 51.0074 15.6C50.5274 16.384 49.8234 17.008 48.8954 17.472C47.9674 17.936 46.8714 18.168 45.6074 18.168ZM71.3651 4.464C73.0291 4.464 74.3491 4.968 75.3251 5.976C76.3171 6.984 76.8131 8.384 76.8131 10.176V18H72.7331V10.728C72.7331 9.864 72.5011 9.2 72.0371 8.736C71.5891 8.256 70.9651 8.016 70.1651 8.016C69.3651 8.016 68.7331 8.256 68.2691 8.736C67.8211 9.2 67.5971 9.864 67.5971 10.728V18H63.5171V10.728C63.5171 9.864 63.2851 9.2 62.8211 8.736C62.3731 8.256 61.7491 8.016 60.9491 8.016C60.1491 8.016 59.5171 8.256 59.0531 8.736C58.6051 9.2 58.3811 9.864 58.3811 10.728V18H54.2771V4.608H58.3811V6.288C58.7971 5.728 59.3411 5.288 60.0131 4.968C60.6851 4.632 61.4451 4.464 62.2931 4.464C63.3011 4.464 64.1971 4.68 64.9811 5.112C65.7811 5.544 66.4051 6.16 66.8531 6.96C67.3171 6.224 67.9491 5.624 68.7491 5.16C69.5491 4.696 70.4211 4.464 71.3651 4.464ZM78.8673 11.28C78.8673 9.904 79.1233 8.696 79.6353 7.656C80.1633 6.616 80.8753 5.816 81.7713 5.256C82.6673 4.696 83.6673 4.416 84.7713 4.416C85.7153 4.416 86.5393 4.608 87.2433 4.992C87.9633 5.376 88.5153 5.88 88.8993 6.504V4.608H93.0033V18H88.8993V16.104C88.4993 16.728 87.9393 17.232 87.2193 17.616C86.5153 18 85.6913 18.192 84.7473 18.192C83.6593 18.192 82.6673 17.912 81.7713 17.352C80.8753 16.776 80.1633 15.968 79.6353 14.928C79.1233 13.872 78.8673 12.656 78.8673 11.28ZM88.8993 11.304C88.8993 10.28 88.6113 9.472 88.0353 8.88C87.4753 8.288 86.7873 7.992 85.9713 7.992C85.1553 7.992 84.4593 8.288 83.8833 8.88C83.3233 9.456 83.0433 10.256 83.0433 11.28C83.0433 12.304 83.3233 13.12 83.8833 13.728C84.4593 14.32 85.1553 14.616 85.9713 14.616C86.7873 14.616 87.4753 14.32 88.0353 13.728C88.6113 13.136 88.8993 12.328 88.8993 11.304ZM100.076 6.84C100.556 6.104 101.156 5.528 101.876 5.112C102.596 4.68 103.396 4.464 104.276 4.464V8.808H103.148C102.124 8.808 101.356 9.032 100.844 9.48C100.332 9.912 100.076 10.68 100.076 11.784V18H95.9724V4.608H100.076V6.84ZM113.702 14.52V18H111.614C110.126 18 108.966 17.64 108.134 16.92C107.302 16.184 106.886 14.992 106.886 13.344V8.016H105.254V4.608H106.886V1.344H110.99V4.608H113.678V8.016H110.99V13.392C110.99 13.792 111.086 14.08 111.278 14.256C111.47 14.432 111.79 14.52 112.238 14.52H113.702Z" fill="white"/>
</svg>
