<svg width="14" height="14" viewBox="0 0 14 14" fill="none" xmlns="http://www.w3.org/2000/svg">
<path fill-rule="evenodd" clip-rule="evenodd" d="M1.46823 11.8709L2.28773 9.16719L8.83569 3.27539L11.021 5.24176L4.47308 11.1335L1.46823 11.8709ZM11.7495 4.58629L12.8693 3.57876C13.0033 3.45809 13.0033 3.26246 12.8693 3.1418L11.1695 1.61242C11.0354 1.49175 10.818 1.49175 10.6839 1.61242L9.56416 2.61994L11.7495 4.58629ZM13.5977 4.23421L5.00809 11.963L1.15361 12.9089L0 13.192L0.314624 12.154L1.36584 8.6858L9.95543 0.956966C10.4919 0.474306 11.3616 0.474306 11.898 0.956966L13.5977 2.48635C14.1341 2.96901 14.1341 3.75155 13.5977 4.23421Z" fill="#056365"/>
</svg>
