<svg width="56" height="57" viewBox="0 0 56 57" fill="none" xmlns="http://www.w3.org/2000/svg">
<path d="M55.7083 25.4083H0.291656V24.2416C0.291656 13.7416 12.1333 1.95825 28 1.95825C43.8667 1.95825 55.7083 13.7416 55.7083 24.2416V25.4083ZM2.68332 23.0749H53.375C52.5 13.9749 41.9417 4.23325 28 4.23325C14.0583 4.23325 3.49999 13.9749 2.68332 23.0749Z" fill="#2E2E2E"/>
<path d="M9.10001 18.4666C12.3667 13.3332 19.6 8.8999 28 8.8999C36.4 8.8999 43.575 13.3332 46.9 18.4666H9.10001ZM52.325 53.8749H3.67501C2.45001 53.8749 1.45834 52.8832 1.45834 51.6582V44.1916H54.5417V51.6582C54.5417 52.8832 53.55 53.8749 52.325 53.8749Z" fill="#85BCBD"/>
<path d="M52.325 55.0416H3.67499C1.80832 55.0416 0.291656 53.5249 0.291656 51.6582V43.0833H55.7083V51.7166C55.7083 53.5249 54.1917 55.0416 52.325 55.0416ZM2.62499 45.3583V51.6582C2.62499 52.2416 3.09166 52.7082 3.67499 52.7082H52.3833C52.9667 52.7082 53.4333 52.2416 53.4333 51.6582V45.3583H2.62499Z" fill="#2E2E2E"/>
<path d="M49.525 39.1749H6.47501C3.67501 39.1749 1.45834 36.8999 1.45834 34.1583C1.45834 31.3583 3.73334 29.1416 6.47501 29.1416H49.525C52.325 29.1416 54.5417 31.4166 54.5417 34.1583C54.5417 36.9583 52.325 39.1749 49.525 39.1749Z" fill="#FF543D"/>
<path d="M49.525 40.3418H6.47499C3.03332 40.3418 0.291656 37.5418 0.291656 34.1584C0.291656 30.7751 3.09166 27.9751 6.47499 27.9751H49.525C52.9667 27.9751 55.7083 30.7751 55.7083 34.1584C55.7083 37.5418 52.9083 40.3418 49.525 40.3418ZM6.47499 30.2501C4.31666 30.2501 2.56666 32.0001 2.56666 34.1584C2.56666 36.3168 4.31666 38.0668 6.47499 38.0668H49.525C51.6833 38.0668 53.4333 36.3168 53.4333 34.1584C53.4333 32.0001 51.6833 30.2501 49.525 30.2501H6.47499Z" fill="#FF543D"/>
<path d="M30.8 36.3166C29.6917 36.3166 28.7 35.9082 27.7667 35.5582C27.0083 35.2666 26.3083 34.9749 25.6667 34.9749C24.9083 34.9166 24.0333 35.2082 23.1583 35.4416C21.8167 35.8499 20.3 36.3166 18.7833 35.7916C18.3167 35.6166 17.9083 35.3832 17.5583 35.2082C17.325 35.0916 17.0917 34.9166 16.8583 34.8582C15.75 34.3916 14.4083 34.6832 12.95 35.0332L12.5417 35.1499C10.85 35.4999 8.39999 35.8499 6.64999 34.3332L8.16666 32.5832C8.92499 33.2249 10.15 33.3415 12.075 32.9332L12.4833 32.8166C14.1167 32.4666 15.9833 32.0582 17.7917 32.7582C18.1417 32.9332 18.4333 33.1082 18.7833 33.2249C19.075 33.3999 19.3667 33.5749 19.6 33.6332C20.4167 33.9249 21.4083 33.6332 22.575 33.2832C23.625 32.9916 24.675 32.6416 25.9 32.6999C26.95 32.7582 27.825 33.1082 28.7 33.4582C29.6333 33.8082 30.5083 34.1582 31.2667 34.0416C31.5583 33.9832 31.9083 33.8666 32.3167 33.6916C32.4917 33.6332 32.6083 33.5749 32.7833 33.5165C34.5333 32.8165 36.575 32.6416 38.4417 33.0499C38.7333 33.1082 39.0833 33.1666 39.375 33.2832C39.9583 33.4582 40.5417 33.5749 41.0667 33.5749C41.825 33.5749 42.6417 33.2249 43.4583 32.9332C43.8083 32.8165 44.1583 32.6416 44.5083 32.5249C46.4917 31.8249 48.2417 31.9999 49.4083 32.9916L47.8917 34.7416C47.1333 34.0999 45.7917 34.5082 45.2083 34.6832C44.9167 34.7999 44.5667 34.9166 44.275 35.0332C43.2833 35.4416 42.2333 35.8499 41.0083 35.8499C41.0083 35.8499 41.0083 35.8499 40.95 35.8499C40.1333 35.8499 39.375 35.6749 38.675 35.4999C38.3833 35.4416 38.15 35.3832 37.8583 35.3249C36.4 35.0332 34.8833 35.1499 33.5417 35.6749C33.425 35.7332 33.25 35.7916 33.1333 35.8499C32.6667 36.0249 32.2 36.2582 31.6167 36.3166C31.325 36.2582 31.0917 36.3166 30.8 36.3166Z" fill="#2E2E2E"/>
<path d="M9.11772 19.0612L7.76437 17.1604L6.00617 18.4122L7.35952 20.313L9.11772 19.0612Z" fill="#2E2E2E"/>
<path d="M40.0946 11.8803L38.7409 9.97974L36.9829 11.2318L38.3365 13.1324L40.0946 11.8803Z" fill="#2E2E2E"/>
<path d="M34.5034 9.53797L33.1501 7.63721L31.3919 8.88905L32.7452 10.7898L34.5034 9.53797Z" fill="#2E2E2E"/>
<path d="M13.4828 14.6626L11.9265 12.9241L10.8834 13.8578L12.4396 15.5964L13.4828 14.6626Z" fill="#2E2E2E"/>
<path d="M21.0214 10.9073L20.1235 8.75366L18.4544 9.4495L19.3523 11.6032L21.0214 10.9073Z" fill="#2E2E2E"/>
<path d="M15.4572 20.0792L14.4672 17.9663L13.2523 18.5356L14.2423 20.6485L15.4572 20.0792Z" fill="#2E2E2E"/>
<path d="M26.6583 9.7167L25.2 7.90837C25.9 7.32503 26.775 6.9167 27.65 6.7417L28.175 8.95837C27.5917 9.13337 27.0667 9.3667 26.6583 9.7167ZM17.7917 16.5417L17.2083 14.325C17.7333 14.2084 18.2583 13.975 18.725 13.7417L19.775 15.7834C19.1333 16.075 18.4917 16.3084 17.7917 16.5417Z" fill="#2E2E2E"/>
<path d="M30.8662 19.6823L30.1247 17.47L28.1889 18.1188L28.9304 20.3312L30.8662 19.6823Z" fill="#2E2E2E"/>
<path d="M42.6121 20.4089L41.8705 18.1965L39.9347 18.8454L40.6763 21.0578L42.6121 20.4089Z" fill="#2E2E2E"/>
<path d="M35.6417 20.8583L34.7083 18.7583C35.2917 18.525 35.875 18.2917 36.4583 18.175L36.925 20.45C36.4583 20.5667 35.9917 20.6833 35.6417 20.8583ZM32.6667 16.3667L31.7333 14.2667C32.3167 14.0333 32.9 13.8583 33.4833 13.6833L33.95 15.9583C33.4833 16.0167 33.075 16.1917 32.6667 16.3667Z" fill="#2E2E2E"/>
<path d="M26.931 14.8917L26.187 12.6802L24.86 13.1266L25.6041 15.3381L26.931 14.8917Z" fill="#2E2E2E"/>
<path d="M16.0246 12.0403L15.2795 9.8291L13.9528 10.2762L14.6979 12.4873L16.0246 12.0403Z" fill="#2E2E2E"/>
<path d="M24.0144 20.508L23.2693 18.2969L21.9426 18.7439L22.6877 20.9551L24.0144 20.508Z" fill="#2E2E2E"/>
<path d="M48.1248 18.7559L47.3807 16.5444L46.0538 16.9909L46.7979 19.2024L48.1248 18.7559Z" fill="#2E2E2E"/>
<path d="M43.9296 16.2154L43.1855 14.0039L41.8586 14.4504L42.6027 16.6619L43.9296 16.2154Z" fill="#2E2E2E"/>
</svg>
