<svg width="29" height="27" viewBox="0 0 29 27" fill="none" xmlns="http://www.w3.org/2000/svg">
<g clip-path="url(#clip0_6_82)">
<path d="M26.8533 0H2.14102C0.957227 0 0 0.870117 0 1.9459V25.0488C0 26.1246 0.957227 27 2.14102 27H26.8533C28.0371 27 29 26.1246 29 25.0541V1.9459C29 0.870117 28.0371 0 26.8533 0ZM8.60371 23.008H4.29902V10.1197H8.60371V23.008ZM6.45137 8.36367C5.06934 8.36367 3.95352 7.3248 3.95352 6.04336C3.95352 4.76191 5.06934 3.72305 6.45137 3.72305C7.82773 3.72305 8.94355 4.76191 8.94355 6.04336C8.94355 7.31953 7.82773 8.36367 6.45137 8.36367ZM24.7123 23.008H20.4133V16.7432C20.4133 15.2508 20.385 13.326 18.176 13.326C15.9387 13.326 15.5988 14.9555 15.5988 16.6377V23.008H11.3055V10.1197H15.4289V11.8811H15.4855C16.0576 10.8686 17.4623 9.79805 19.5523 9.79805C23.908 9.79805 24.7123 12.4664 24.7123 15.9363V23.008Z" fill="white"/>
</g>
<defs>
<clipPath id="clip0_6_82">
<rect width="29" height="27" fill="white"/>
</clipPath>
</defs>
</svg>
