<svg width="20" height="22" viewBox="0 0 20 22" fill="none" xmlns="http://www.w3.org/2000/svg">
<path fill-rule="evenodd" clip-rule="evenodd" d="M12 1.5H8C7.7239 1.5 7.5 1.72386 7.5 2V4H12.5V2C12.5 1.72386 12.2761 1.5 12 1.5ZM14 4H19.25C19.6642 4 20 4.33579 20 4.75C20 5.16421 19.6642 5.5 19.25 5.5H18V18C18 20.2091 16.2091 22 14 22H6C3.79086 22 2 20.2091 2 18V5.5H0.75C0.33579 5.5 0 5.16421 0 4.75C0 4.33579 0.33579 4 0.75 4H6V2C6 0.89543 6.8954 0 8 0H12C13.1046 0 14 0.89543 14 2V4ZM3.5 5.5H16.5V18C16.5 19.3807 15.3807 20.5 14 20.5H6C4.61929 20.5 3.5 19.3807 3.5 18V5.5ZM10.75 10C10.75 9.5858 10.4142 9.25 10 9.25C9.5858 9.25 9.25 9.5858 9.25 10V16C9.25 16.4142 9.5858 16.75 10 16.75C10.4142 16.75 10.75 16.4142 10.75 16V10ZM7 9.25C7.4142 9.25 7.75 9.5858 7.75 10V16C7.75 16.4142 7.4142 16.75 7 16.75C6.5858 16.75 6.25 16.4142 6.25 16V10C6.25 9.5858 6.5858 9.25 7 9.25ZM13.75 10C13.75 9.5858 13.4142 9.25 13 9.25C12.5858 9.25 12.25 9.5858 12.25 10V16C12.25 16.4142 12.5858 16.75 13 16.75C13.4142 16.75 13.75 16.4142 13.75 16V10Z" fill="#056365"/>
</svg>
