<svg width="27" height="24" viewBox="0 0 27 24" fill="none" xmlns="http://www.w3.org/2000/svg">
<path fill-rule="evenodd" clip-rule="evenodd" d="M15.6714 2.48371H10.4714C10.1125 2.48371 9.82141 2.71774 9.82141 3.00644V5.09735H16.3214V3.00644C16.3214 2.71774 16.0303 2.48371 15.6714 2.48371ZM18.2714 5.09735H25.0964C25.6349 5.09735 26.0714 5.4484 26.0714 5.88144C26.0714 6.31447 25.6349 6.66553 25.0964 6.66553H23.4714V19.7337C23.4714 22.0432 21.1432 23.9155 18.2714 23.9155H7.87141C4.99953 23.9155 2.67141 22.0432 2.67141 19.7337V6.66553H1.04641C0.507938 6.66553 0.0714111 6.31447 0.0714111 5.88144C0.0714111 5.4484 0.507938 5.09735 1.04641 5.09735H7.87141V3.00644C7.87141 1.85166 9.03543 0.915527 10.4714 0.915527H15.6714C17.1074 0.915527 18.2714 1.85166 18.2714 3.00644V5.09735ZM4.62141 6.66553H21.5214V19.7337C21.5214 21.1772 20.0663 22.3473 18.2714 22.3473H7.87141C6.07649 22.3473 4.62141 21.1772 4.62141 19.7337V6.66553ZM14.0464 11.3701C14.0464 10.937 13.6099 10.586 13.0714 10.586C12.533 10.586 12.0964 10.937 12.0964 11.3701V17.6428C12.0964 18.0758 12.533 18.4269 13.0714 18.4269C13.6099 18.4269 14.0464 18.0758 14.0464 17.6428V11.3701ZM9.17141 10.586C9.70987 10.586 10.1464 10.937 10.1464 11.3701V17.6428C10.1464 18.0758 9.70987 18.4269 9.17141 18.4269C8.63295 18.4269 8.19641 18.0758 8.19641 17.6428V11.3701C8.19641 10.937 8.63295 10.586 9.17141 10.586ZM17.9464 11.3701C17.9464 10.937 17.5099 10.586 16.9714 10.586C16.433 10.586 15.9964 10.937 15.9964 11.3701V17.6428C15.9964 18.0758 16.433 18.4269 16.9714 18.4269C17.5099 18.4269 17.9464 18.0758 17.9464 17.6428V11.3701Z" fill="white"/>
</svg>
