<svg width="56" height="57" viewBox="0 0 56 57" fill="none" xmlns="http://www.w3.org/2000/svg">
<g clip-path="url(#clip0_3_534)">
<path d="M37.5667 37.5417H18.6083V50.4917H37.5667V37.5417Z" fill="#85BCBD"/>
<path d="M42.5833 12.1666C42.35 12.1666 42.0583 12.1666 41.825 12.225C40.0167 6.39163 34.1833 2.1333 27.2417 2.1333C21.1167 2.1333 15.8083 5.4583 13.4167 10.3C6.76668 11 1.57501 16.1916 1.57501 22.55C1.57501 29.375 7.64168 34.975 15.05 34.975C19.4833 34.975 23.45 32.9916 25.9 29.9583C26.3083 30.0166 26.775 30.0166 27.2417 30.0166C29.1667 30.0166 31.0333 29.6666 32.7833 29.025C34.8833 31.9416 38.5 33.8666 42.6417 33.8666C49.175 33.8666 54.4833 29.025 54.4833 23.0166C54.4833 17.0083 49.1167 12.1666 42.5833 12.1666Z" fill="#FF543D"/>
<path d="M15.1083 36.0832C6.99998 36.0832 0.466644 30.0166 0.466644 22.5499C0.466644 15.8999 5.71664 10.2416 12.7166 9.19155C15.4583 4.17489 21.1166 0.966553 27.2416 0.966553C34.1833 0.966553 40.3666 5.04989 42.6416 11.0582C49.7583 11.0582 55.5916 16.4249 55.5916 23.0749C55.5916 29.6666 49.7583 35.0916 42.6416 35.0916C38.6166 35.0916 34.825 33.3416 32.375 30.4249C30.6833 30.9499 28.9916 31.1832 27.2416 31.1832C26.95 31.1832 26.6583 31.1832 26.425 31.1832C23.625 34.2749 19.5416 36.0832 15.1083 36.0832ZM27.2416 3.24155C21.7583 3.24155 16.7416 6.21655 14.4666 10.7666L14.175 11.3499L13.5333 11.4082C7.40831 12.1082 2.74164 16.8916 2.74164 22.5499C2.74164 28.7332 8.28331 33.8082 15.1083 33.8082C19.075 33.8082 22.6916 32.1166 25.025 29.1999L25.4333 28.7332L26.0166 28.7916C26.3666 28.7916 26.775 28.8499 27.2416 28.8499C28.9916 28.8499 30.7416 28.5582 32.375 27.9749L33.1916 27.6832L33.7166 28.3832C35.7 31.1249 39.025 32.7582 42.6416 32.7582C48.5333 32.7582 53.3166 28.3832 53.3166 23.0749C53.3166 17.7666 48.475 13.3332 42.5833 13.3332C42.4083 13.3332 42.2333 13.3332 42.0583 13.3332L41.0083 13.3916L40.7166 12.5166C39.025 7.09155 33.4833 3.24155 27.2416 3.24155Z" fill="#2E2E2E"/>
<path d="M42.35 56.0333H13.65L7.9917 31.9417L10.0334 32.8167C11.6667 33.4584 13.3584 33.8083 15.1084 33.8083C19.075 33.8083 22.6917 32.1167 25.025 29.2L25.4334 28.7334L26.0167 28.7917C26.3667 28.7917 26.775 28.85 27.2417 28.85C28.9917 28.85 30.7417 28.5583 32.375 27.975L33.1917 27.6833L33.7167 28.3834C35.7 31.125 39.025 32.7583 42.6417 32.7583C43.8667 32.7583 45.0917 32.5833 46.2584 32.175L48.1834 31.5334L42.35 56.0333ZM15.4584 53.7584H40.6L45.0917 34.8C44.275 34.9167 43.4584 35.0334 42.6417 35.0334C38.6167 35.0334 34.825 33.2834 32.375 30.3667C30.6834 30.8917 28.9917 31.125 27.2417 31.125C26.95 31.125 26.6584 31.125 26.425 31.125C23.625 34.275 19.5417 36.0834 15.1084 36.0834C13.7667 36.0834 12.425 35.9084 11.2 35.6167L15.4584 53.7584Z" fill="#2E2E2E"/>
<path d="M23.5667 39.9333H21.2917V47.575H23.5667V39.9333Z" fill="#2E2E2E"/>
<path d="M29.225 39.9333H26.95V47.575H29.225V39.9333Z" fill="#2E2E2E"/>
<path d="M34.825 39.9333H32.55V47.575H34.825V39.9333Z" fill="#2E2E2E"/>
<path d="M13.5619 28.34L11.7328 26.6235L10.176 28.2825L12.0051 29.9989L13.5619 28.34Z" fill="#2E2E2E"/>
<path d="M15.3772 18.1127L13.5481 16.3962L11.9913 18.0552L13.8204 19.7716L15.3772 18.1127Z" fill="#2E2E2E"/>
<path d="M44.6505 18.9809L42.8216 17.2642L41.2646 18.9229L43.0934 20.6396L44.6505 18.9809Z" fill="#2E2E2E"/>
<path d="M35.3825 21.2482L33.5535 19.5317L31.9967 21.1907L33.8257 22.9071L35.3825 21.2482Z" fill="#2E2E2E"/>
<path d="M47.3567 27.4416L45.5277 25.7251L43.9709 27.384L45.8 29.1005L47.3567 27.4416Z" fill="#2E2E2E"/>
<path d="M24.1422 22.9562L22.3131 21.2397L20.7563 22.8987L22.5854 24.6151L24.1422 22.9562Z" fill="#2E2E2E"/>
<path d="M25.8272 12.9652L23.9982 11.2488L22.4414 12.9077L24.2704 14.6242L25.8272 12.9652Z" fill="#2E2E2E"/>
<path d="M34.4964 10.1943L32.6673 8.47778L31.1105 10.1367L32.9396 11.8532L34.4964 10.1943Z" fill="#2E2E2E"/>
</g>
<defs>
<clipPath id="clip0_3_534">
<rect width="56" height="56" fill="white" transform="translate(0 0.5)"/>
</clipPath>
</defs>
</svg>
