<svg width="56" height="57" viewBox="0 0 56 57" fill="none" xmlns="http://www.w3.org/2000/svg">
<path d="M14.4083 55.6249C9.97498 55.6249 5.54165 54.0499 2.79998 50.4916C0.408313 47.3999 -0.291687 43.2582 0.69998 38.7666C1.63331 34.6832 3.96665 30.8332 6.99998 28.5582C11.9583 24.7666 35.0583 13.2166 41.1833 21.2082C43.8083 24.7082 42.525 30.5999 37.45 38.2416C33.4833 44.1916 28.1166 49.9082 25.0833 52.1832C22.225 54.3999 18.3166 55.6249 14.4083 55.6249ZM34.0083 20.6832C26.075 20.6832 12.8916 26.9832 8.39998 30.3666C5.83331 32.3499 3.79165 35.6749 2.97498 39.2332C2.09998 43.0249 2.74165 46.5249 4.66665 49.0916C8.92498 54.6332 18.4916 54.3416 23.6833 50.4332C26.6 48.2166 31.85 42.5582 35.525 37.0166C39.9583 30.3082 41.3 25.2332 39.3166 22.6082C38.2666 21.2666 36.3416 20.6832 34.0083 20.6832Z" fill="#2E2E2E"/>
<path d="M14.4667 49.85C11.375 49.85 8.80832 48.8 7.40832 46.9917C6.12499 45.3 5.71665 42.7334 6.35832 40.05C6.94165 37.25 8.51665 34.625 10.5 33.1667C14.6417 30.0167 27.0667 24.1833 34.0083 24.1833C35.8167 24.1833 36.5167 24.5917 36.6333 24.7084C36.9833 25.1167 37.275 28.15 32.6667 35.0917C28.8167 40.8084 23.7417 46 21.525 47.6917C19.775 49.0334 17.0917 49.85 14.4667 49.85Z" fill="#FF543D"/>
<path d="M53.725 16.8333C53.2583 16.1916 52.675 15.725 52.0333 15.375C50.8083 14.7333 49.875 13.5666 49.6417 12.225C49.4667 11.525 49.175 10.825 48.7083 10.2416C47.25 8.43329 44.275 8.02495 42.35 9.36662C40.1917 10.8833 39.725 13.9166 41.3 16.0166C41.7083 16.5416 41.65 17.3 41.125 17.65L37.8583 20.1583C38.7917 20.5666 39.6083 21.0916 40.1917 21.9083C40.775 22.6666 41.125 23.6 41.2417 24.5916L44.5083 22.0833C45.0333 21.675 45.7333 21.7916 46.1417 22.3166C47.775 24.4166 50.8083 24.7666 52.85 23.075C54.7167 21.675 55.0667 18.7 53.725 16.8333Z" fill="#85BCBD"/>
<path d="M40.3667 26.75L40.1333 24.7667C40.0167 23.8917 39.7833 23.1917 39.3167 22.6084C38.85 22.025 38.2667 21.5584 37.45 21.2667L35.5833 20.5084L40.4833 16.775L40.425 16.7167C39.4333 15.4334 39.025 13.8584 39.3167 12.2834C39.55 10.7084 40.425 9.30835 41.7083 8.37502C44.1 6.68335 47.7167 7.15002 49.5833 9.48335C50.1667 10.2417 50.575 11.0584 50.75 11.9334C50.9833 12.9834 51.625 13.8584 52.5583 14.325C53.375 14.7334 54.075 15.375 54.6583 16.1334C56.4083 18.525 55.8833 22.1417 53.6083 24.0084C52.3833 25.0584 50.8083 25.4667 49.2333 25.2917C47.6583 25.1167 46.2583 24.3 45.2667 23.0167L45.2083 22.9584L40.3667 26.75ZM45.2083 20.7417C45.325 20.7417 45.4417 20.7417 45.5 20.7417C46.1417 20.8 46.6667 21.15 47.075 21.675C47.6583 22.4334 48.5333 22.9584 49.4667 23.075C50.4583 23.1917 51.3917 22.9 52.15 22.2584C53.4917 21.15 53.7833 18.875 52.7917 17.475C52.4417 17.0084 52.0333 16.6584 51.5667 16.3667C49.9917 15.55 48.8833 14.15 48.5333 12.4C48.4167 11.875 48.1833 11.35 47.8333 10.8834C46.725 9.54169 44.45 9.25002 43.05 10.2417C42.2333 10.825 41.7083 11.6417 41.5917 12.575C41.4167 13.5084 41.7083 14.5 42.2917 15.2584C42.7 15.7834 42.875 16.3667 42.7583 17.0084C42.7 17.5917 42.35 18.175 41.8833 18.525L40.0167 19.9834C40.4833 20.3334 40.8333 20.6834 41.1833 21.15C41.5333 21.6167 41.7667 22.0834 42 22.6084L43.8667 21.15C44.275 20.9167 44.7417 20.7417 45.2083 20.7417Z" fill="#2E2E2E"/>
<path d="M7.90397 37.1417L6.22736 36.9165L5.91674 39.2291L7.59335 39.4543L7.90397 37.1417Z" fill="#2E2E2E"/>
<path d="M20.3849 37.4901L18.7083 37.2649L18.3977 39.5775L20.0743 39.8027L20.3849 37.4901Z" fill="#2E2E2E"/>
<path d="M31.7651 34.8619L30.0885 34.6367L29.7778 36.9493L31.4545 37.1745L31.7651 34.8619Z" fill="#2E2E2E"/>
<path d="M14.902 48.045L13.2254 47.8198L12.9148 50.1324L14.5914 50.3576L14.902 48.045Z" fill="#2E2E2E"/>
<path d="M18.9258 30.838L17.2492 30.6128L16.9385 32.9254L18.6152 33.1506L18.9258 30.838Z" fill="#2E2E2E"/>
<path d="M30.7143 25.295L29.0377 25.0698L28.727 27.3824L30.4037 27.6076L30.7143 25.295Z" fill="#2E2E2E"/>
<path d="M15.6333 1.375H13.3V8.60833H15.6333V1.375Z" fill="#2E2E2E"/>
<path d="M8.75 11.4666H6.41667V18.6999H8.75V11.4666Z" fill="#2E2E2E"/>
<path d="M22.575 9.19165H20.2417V16.425H22.575V9.19165Z" fill="#2E2E2E"/>
</svg>
