<svg width="15" height="14" viewBox="0 0 15 14" fill="none" xmlns="http://www.w3.org/2000/svg">
<path fill-rule="evenodd" clip-rule="evenodd" d="M8.57725 1.45386H5.77725C5.58398 1.45386 5.42725 1.58204 5.42725 1.74016V2.88535H8.92725V1.74016C8.92725 1.58204 8.77052 1.45386 8.57725 1.45386ZM9.97725 2.88535H13.6522C13.9422 2.88535 14.1772 3.07762 14.1772 3.31479C14.1772 3.55197 13.9422 3.74424 13.6522 3.74424H12.7772V10.9017C12.7772 12.1666 11.5236 13.192 9.97725 13.192H4.37725C2.83085 13.192 1.57725 12.1666 1.57725 10.9017V3.74424H0.702246C0.412299 3.74424 0.177246 3.55197 0.177246 3.31479C0.177246 3.07762 0.412299 2.88535 0.702246 2.88535H4.37725V1.74016C4.37725 1.10769 5.00403 0.594971 5.77725 0.594971H8.57725C9.35047 0.594971 9.97725 1.10769 9.97725 1.74016V2.88535ZM2.62725 3.74424H11.7272V10.9017C11.7272 11.6923 10.9437 12.3332 9.97725 12.3332H4.37725C3.41075 12.3332 2.62725 11.6923 2.62725 10.9017V3.74424ZM7.70225 6.32091C7.70225 6.08375 7.46719 5.89147 7.17725 5.89147C6.88731 5.89147 6.65225 6.08375 6.65225 6.32091V9.75648C6.65225 9.99365 6.88731 10.1859 7.17725 10.1859C7.46719 10.1859 7.70225 9.99365 7.70225 9.75648V6.32091ZM5.07725 5.89147C5.36719 5.89147 5.60225 6.08375 5.60225 6.32091V9.75648C5.60225 9.99365 5.36719 10.1859 5.07725 10.1859C4.78731 10.1859 4.55225 9.99365 4.55225 9.75648V6.32091C4.55225 6.08375 4.78731 5.89147 5.07725 5.89147ZM9.80225 6.32091C9.80225 6.08375 9.56719 5.89147 9.27725 5.89147C8.98731 5.89147 8.75225 6.08375 8.75225 6.32091V9.75648C8.75225 9.99365 8.98731 10.1859 9.27725 10.1859C9.56719 10.1859 9.80225 9.99365 9.80225 9.75648V6.32091Z" fill="#056365"/>
</svg>
