<svg width="29" height="23" viewBox="0 0 29 23" fill="none" xmlns="http://www.w3.org/2000/svg">
<path d="M9.12311 22.4686C20.0638 22.4686 26.0496 14.0274 26.0496 6.70944C26.0496 6.47214 26.0439 6.22956 26.0326 5.99225C27.197 5.20824 28.2019 4.23713 29 3.12456C27.9155 3.57377 26.7642 3.86715 25.5851 3.99468C26.8265 3.30187 27.7561 2.2135 28.2014 0.931335C27.0335 1.57572 25.7563 2.03029 24.4246 2.27553C23.5273 1.38785 22.3409 0.800103 21.0488 0.603155C19.7567 0.406206 18.4309 0.611029 17.2764 1.18596C16.1219 1.76088 15.203 2.67389 14.6617 3.78382C14.1205 4.89375 13.987 6.13879 14.2819 7.32643C11.9172 7.21595 9.60376 6.64401 7.49164 5.64771C5.37953 4.6514 3.51588 3.25296 2.0215 1.54305C1.26198 2.76225 1.02957 4.20495 1.3715 5.57795C1.71342 6.95095 2.60403 8.15123 3.86232 8.93483C2.91768 8.90691 1.99372 8.67011 1.1668 8.24401V8.31257C1.16595 9.59202 1.64103 10.8323 2.51129 11.8225C3.38155 12.8127 4.59327 13.4917 5.94047 13.7442C5.0654 13.9671 4.14698 13.9996 3.25627 13.8391C3.63642 14.9395 4.37607 15.9018 5.37197 16.592C6.36788 17.2821 7.57035 17.6655 8.81158 17.6887C6.70435 19.2298 4.10129 20.0657 1.42168 20.0618C0.946472 20.0611 0.471732 20.034 0 19.9806C2.7222 21.6066 5.88885 22.4702 9.12311 22.4686Z" fill="white"/>
</svg>
