<svg width="1440" height="276" viewBox="0 0 1440 276" fill="none" xmlns="http://www.w3.org/2000/svg">
<mask id="mask0_3_388" style="mask-type:alpha" maskUnits="userSpaceOnUse" x="-2" y="0" width="1445" height="276">
<rect x="-2" width="1445" height="276" fill="#F8B602"/>
</mask>
<g mask="url(#mask0_3_388)">
<rect x="-2" width="1445" height="276" fill="#056365"/>
<path opacity="0.25" d="M1200.86 -29.125C1200.86 61.3807 1112.21 134.75 1002.86 134.75C893.515 134.75 804.87 61.3807 804.87 -29.125C804.87 -119.631 893.515 -193 1002.86 -193C1112.21 -193 1200.86 -119.631 1200.86 -29.125ZM872.675 -29.125C872.675 30.3861 930.962 78.6295 1002.86 78.6295C1074.76 78.6295 1133.05 30.3861 1133.05 -29.125C1133.05 -88.6361 1074.76 -136.879 1002.86 -136.879C930.962 -136.879 872.675 -88.6361 872.675 -29.125Z" fill="white"/>
<path opacity="0.25" d="M1592.84 274.275C1592.84 364.781 1504.19 438.15 1394.84 438.15C1285.5 438.15 1196.85 364.781 1196.85 274.275C1196.85 183.769 1285.5 110.4 1394.84 110.4C1504.19 110.4 1592.84 183.769 1592.84 274.275ZM1264.66 274.275C1264.66 333.786 1322.94 382.029 1394.84 382.029C1466.74 382.029 1525.03 333.786 1525.03 274.275C1525.03 214.764 1466.74 166.52 1394.84 166.52C1322.94 166.52 1264.66 214.764 1264.66 274.275Z" fill="white"/>
<path opacity="0.25" d="M213.986 257.875C213.986 348.381 125.341 421.75 15.9928 421.75C-93.3556 421.75 -182 348.381 -182 257.875C-182 167.369 -93.3556 94 15.9928 94C125.341 94 213.986 167.369 213.986 257.875ZM-114.195 257.875C-114.195 317.386 -55.9082 365.629 15.9928 365.629C87.8938 365.629 146.181 317.386 146.181 257.875C146.181 198.364 87.8938 150.121 15.9928 150.121C-55.9082 150.121 -114.195 198.364 -114.195 257.875Z" fill="white"/>
<path d="M580.976 135.024H574.688L573.68 138H569.384L575.48 121.152H580.232L586.328 138H581.984L580.976 135.024ZM579.92 131.856L577.832 125.688L575.768 131.856H579.92ZM592.287 126.504C592.687 125.88 593.239 125.376 593.943 124.992C594.647 124.608 595.471 124.416 596.415 124.416C597.519 124.416 598.519 124.696 599.415 125.256C600.311 125.816 601.015 126.616 601.527 127.656C602.055 128.696 602.319 129.904 602.319 131.28C602.319 132.656 602.055 133.872 601.527 134.928C601.015 135.968 600.311 136.776 599.415 137.352C598.519 137.912 597.519 138.192 596.415 138.192C595.487 138.192 594.663 138 593.943 137.616C593.239 137.232 592.687 136.736 592.287 136.128V144.384H588.183V124.608H592.287V126.504ZM598.143 131.28C598.143 130.256 597.855 129.456 597.279 128.88C596.719 128.288 596.023 127.992 595.191 127.992C594.375 127.992 593.679 128.288 593.103 128.88C592.543 129.472 592.263 130.28 592.263 131.304C592.263 132.328 592.543 133.136 593.103 133.728C593.679 134.32 594.375 134.616 595.191 134.616C596.007 134.616 596.703 134.32 597.279 133.728C597.855 133.12 598.143 132.304 598.143 131.28ZM617.096 131.088C617.096 131.472 617.072 131.872 617.024 132.288H607.736C607.8 133.12 608.064 133.76 608.528 134.208C609.008 134.64 609.592 134.856 610.28 134.856C611.304 134.856 612.016 134.424 612.416 133.56H616.784C616.56 134.44 616.152 135.232 615.56 135.936C614.984 136.64 614.256 137.192 613.376 137.592C612.496 137.992 611.512 138.192 610.424 138.192C609.112 138.192 607.944 137.912 606.92 137.352C605.896 136.792 605.096 135.992 604.52 134.952C603.944 133.912 603.656 132.696 603.656 131.304C603.656 129.912 603.936 128.696 604.496 127.656C605.072 126.616 605.872 125.816 606.896 125.256C607.92 124.696 609.096 124.416 610.424 124.416C611.72 124.416 612.872 124.688 613.88 125.232C614.888 125.776 615.672 126.552 616.232 127.56C616.808 128.568 617.096 129.744 617.096 131.088ZM612.896 130.008C612.896 129.304 612.656 128.744 612.176 128.328C611.696 127.912 611.096 127.704 610.376 127.704C609.688 127.704 609.104 127.904 608.624 128.304C608.16 128.704 607.872 129.272 607.76 130.008H612.896ZM626.725 134.52V138H624.637C623.149 138 621.989 137.64 621.157 136.92C620.325 136.184 619.909 134.992 619.909 133.344V128.016H618.277V124.608H619.909V121.344H624.013V124.608H626.701V128.016H624.013V133.392C624.013 133.792 624.109 134.08 624.301 134.256C624.493 134.432 624.813 134.52 625.261 134.52H626.725ZM631.075 123.216C630.355 123.216 629.763 123.008 629.299 122.592C628.851 122.16 628.627 121.632 628.627 121.008C628.627 120.368 628.851 119.84 629.299 119.424C629.763 118.992 630.355 118.776 631.075 118.776C631.779 118.776 632.355 118.992 632.803 119.424C633.267 119.84 633.499 120.368 633.499 121.008C633.499 121.632 633.267 122.16 632.803 122.592C632.355 123.008 631.779 123.216 631.075 123.216ZM633.115 124.608V138H629.011V124.608H633.115ZM643.554 134.52V138H641.466C639.978 138 638.818 137.64 637.986 136.92C637.154 136.184 636.738 134.992 636.738 133.344V128.016H635.106V124.608H636.738V121.344H640.842V124.608H643.53V128.016H640.842V133.392C640.842 133.792 640.938 134.08 641.13 134.256C641.322 134.432 641.642 134.52 642.09 134.52H643.554ZM658.464 131.088C658.464 131.472 658.44 131.872 658.392 132.288H649.104C649.168 133.12 649.432 133.76 649.896 134.208C650.376 134.64 650.96 134.856 651.648 134.856C652.672 134.856 653.384 134.424 653.784 133.56H658.152C657.928 134.44 657.52 135.232 656.928 135.936C656.352 136.64 655.624 137.192 654.744 137.592C653.864 137.992 652.88 138.192 651.792 138.192C650.48 138.192 649.312 137.912 648.288 137.352C647.264 136.792 646.464 135.992 645.888 134.952C645.312 133.912 645.024 132.696 645.024 131.304C645.024 129.912 645.304 128.696 645.864 127.656C646.44 126.616 647.24 125.816 648.264 125.256C649.288 124.696 650.464 124.416 651.792 124.416C653.088 124.416 654.24 124.688 655.248 125.232C656.256 125.776 657.04 126.552 657.6 127.56C658.176 128.568 658.464 129.744 658.464 131.088ZM654.264 130.008C654.264 129.304 654.024 128.744 653.544 128.328C653.064 127.912 652.464 127.704 651.744 127.704C651.056 127.704 650.472 127.904 649.992 128.304C649.528 128.704 649.24 129.272 649.128 130.008H654.264ZM669.819 126.504C670.219 125.88 670.771 125.376 671.475 124.992C672.179 124.608 673.003 124.416 673.947 124.416C675.051 124.416 676.051 124.696 676.947 125.256C677.843 125.816 678.547 126.616 679.059 127.656C679.587 128.696 679.851 129.904 679.851 131.28C679.851 132.656 679.587 133.872 679.059 134.928C678.547 135.968 677.843 136.776 676.947 137.352C676.051 137.912 675.051 138.192 673.947 138.192C673.019 138.192 672.195 138 671.475 137.616C670.771 137.232 670.219 136.736 669.819 136.128V144.384H665.715V124.608H669.819V126.504ZM675.675 131.28C675.675 130.256 675.387 129.456 674.811 128.88C674.251 128.288 673.555 127.992 672.723 127.992C671.907 127.992 671.211 128.288 670.635 128.88C670.075 129.472 669.795 130.28 669.795 131.304C669.795 132.328 670.075 133.136 670.635 133.728C671.211 134.32 671.907 134.616 672.723 134.616C673.539 134.616 674.235 134.32 674.811 133.728C675.387 133.12 675.675 132.304 675.675 131.28ZM688.1 138.192C686.788 138.192 685.604 137.912 684.548 137.352C683.508 136.792 682.684 135.992 682.076 134.952C681.484 133.912 681.188 132.696 681.188 131.304C681.188 129.928 681.492 128.72 682.1 127.68C682.708 126.624 683.54 125.816 684.596 125.256C685.652 124.696 686.836 124.416 688.148 124.416C689.46 124.416 690.644 124.696 691.7 125.256C692.756 125.816 693.588 126.624 694.196 127.68C694.804 128.72 695.108 129.928 695.108 131.304C695.108 132.68 694.796 133.896 694.172 134.952C693.564 135.992 692.724 136.792 691.652 137.352C690.596 137.912 689.412 138.192 688.1 138.192ZM688.1 134.64C688.884 134.64 689.548 134.352 690.092 133.776C690.652 133.2 690.932 132.376 690.932 131.304C690.932 130.232 690.66 129.408 690.116 128.832C689.588 128.256 688.932 127.968 688.148 127.968C687.348 127.968 686.684 128.256 686.156 128.832C685.628 129.392 685.364 130.216 685.364 131.304C685.364 132.376 685.62 133.2 686.132 133.776C686.66 134.352 687.316 134.64 688.1 134.64ZM701.389 126.84C701.869 126.104 702.469 125.528 703.189 125.112C703.909 124.68 704.709 124.464 705.589 124.464V128.808H704.461C703.437 128.808 702.669 129.032 702.157 129.48C701.645 129.912 701.389 130.68 701.389 131.784V138H697.285V124.608H701.389V126.84ZM777.68 131.28C777.68 129.904 777.936 128.696 778.448 127.656C778.976 126.616 779.688 125.816 780.584 125.256C781.48 124.696 782.48 124.416 783.584 124.416C784.528 124.416 785.352 124.608 786.056 124.992C786.776 125.376 787.328 125.88 787.712 126.504V124.608H791.816V138H787.712V136.104C787.312 136.728 786.752 137.232 786.032 137.616C785.328 138 784.504 138.192 783.56 138.192C782.472 138.192 781.48 137.912 780.584 137.352C779.688 136.776 778.976 135.968 778.448 134.928C777.936 133.872 777.68 132.656 777.68 131.28ZM787.712 131.304C787.712 130.28 787.424 129.472 786.848 128.88C786.288 128.288 785.6 127.992 784.784 127.992C783.968 127.992 783.272 128.288 782.696 128.88C782.136 129.456 781.856 130.256 781.856 131.28C781.856 132.304 782.136 133.12 782.696 133.728C783.272 134.32 783.968 134.616 784.784 134.616C785.6 134.616 786.288 134.32 786.848 133.728C787.424 133.136 787.712 132.328 787.712 131.304ZM800.617 134.688C801.673 134.688 802.385 134.176 802.753 133.152H807.121C806.817 134.512 806.209 135.624 805.297 136.488C804.385 137.352 803.249 137.888 801.889 138.096V138.984C802.721 138.984 803.449 139.208 804.073 139.656C804.697 140.12 805.009 140.808 805.009 141.72C805.009 142.632 804.681 143.32 804.025 143.784C803.369 144.264 802.585 144.504 801.673 144.504H797.977V142.248H801.121C801.441 142.248 801.681 142.2 801.841 142.104C802.001 142.008 802.081 141.848 802.081 141.624C802.081 141.4 802.001 141.24 801.841 141.144C801.681 141.064 801.441 141.024 801.121 141.024H799.417V138.096C797.769 137.84 796.449 137.112 795.457 135.912C794.465 134.696 793.969 133.16 793.969 131.304C793.969 129.912 794.249 128.696 794.809 127.656C795.385 126.616 796.177 125.816 797.185 125.256C798.209 124.696 799.377 124.416 800.689 124.416C802.369 124.416 803.769 124.856 804.889 125.736C806.025 126.616 806.769 127.856 807.121 129.456H802.753C802.385 128.432 801.673 127.92 800.617 127.92C799.865 127.92 799.265 128.216 798.817 128.808C798.369 129.384 798.145 130.216 798.145 131.304C798.145 132.392 798.369 133.232 798.817 133.824C799.265 134.4 799.865 134.688 800.617 134.688ZM815.412 138.192C814.1 138.192 812.916 137.912 811.86 137.352C810.82 136.792 809.996 135.992 809.388 134.952C808.796 133.912 808.5 132.696 808.5 131.304C808.5 129.928 808.804 128.72 809.412 127.68C810.02 126.624 810.852 125.816 811.908 125.256C812.964 124.696 814.148 124.416 815.46 124.416C816.772 124.416 817.956 124.696 819.012 125.256C820.068 125.816 820.9 126.624 821.508 127.68C822.116 128.72 822.42 129.928 822.42 131.304C822.42 132.68 822.108 133.896 821.484 134.952C820.876 135.992 820.036 136.792 818.964 137.352C817.908 137.912 816.724 138.192 815.412 138.192ZM815.412 134.64C816.196 134.64 816.86 134.352 817.404 133.776C817.964 133.2 818.244 132.376 818.244 131.304C818.244 130.232 817.972 129.408 817.428 128.832C816.9 128.256 816.244 127.968 815.46 127.968C814.66 127.968 813.996 128.256 813.468 128.832C812.94 129.392 812.676 130.216 812.676 131.304C812.676 132.376 812.932 133.2 813.444 133.776C813.972 134.352 814.628 134.64 815.412 134.64ZM810.972 123.384C811.356 121.016 812.46 119.832 814.284 119.832C814.636 119.832 814.94 119.888 815.196 120C815.468 120.096 815.796 120.248 816.18 120.456C816.468 120.616 816.7 120.736 816.876 120.816C817.052 120.88 817.236 120.912 817.428 120.912C818.02 120.912 818.364 120.552 818.46 119.832H820.572C820.188 122.2 819.084 123.384 817.26 123.384C816.908 123.384 816.596 123.336 816.324 123.24C816.068 123.128 815.748 122.968 815.364 122.76C815.076 122.6 814.844 122.488 814.668 122.424C814.492 122.344 814.308 122.304 814.116 122.304C813.524 122.304 813.172 122.664 813.06 123.384H810.972ZM837.221 131.088C837.221 131.472 837.197 131.872 837.149 132.288H827.861C827.925 133.12 828.189 133.76 828.653 134.208C829.133 134.64 829.717 134.856 830.405 134.856C831.429 134.856 832.141 134.424 832.541 133.56H836.909C836.685 134.44 836.277 135.232 835.685 135.936C835.109 136.64 834.381 137.192 833.501 137.592C832.621 137.992 831.637 138.192 830.549 138.192C829.237 138.192 828.069 137.912 827.045 137.352C826.021 136.792 825.221 135.992 824.645 134.952C824.069 133.912 823.781 132.696 823.781 131.304C823.781 129.912 824.061 128.696 824.621 127.656C825.197 126.616 825.997 125.816 827.021 125.256C828.045 124.696 829.221 124.416 830.549 124.416C831.845 124.416 832.997 124.688 834.005 125.232C835.013 125.776 835.797 126.552 836.357 127.56C836.933 128.568 837.221 129.744 837.221 131.088ZM833.021 130.008C833.021 129.304 832.781 128.744 832.301 128.328C831.821 127.912 831.221 127.704 830.501 127.704C829.813 127.704 829.229 127.904 828.749 128.304C828.285 128.704 827.997 129.272 827.885 130.008H833.021ZM844.834 138.192C843.666 138.192 842.626 137.992 841.714 137.592C840.802 137.192 840.082 136.648 839.554 135.96C839.026 135.256 838.73 134.472 838.666 133.608H842.722C842.77 134.072 842.986 134.448 843.37 134.736C843.754 135.024 844.226 135.168 844.786 135.168C845.298 135.168 845.69 135.072 845.962 134.88C846.25 134.672 846.394 134.408 846.394 134.088C846.394 133.704 846.194 133.424 845.794 133.248C845.394 133.056 844.746 132.848 843.85 132.624C842.89 132.4 842.09 132.168 841.45 131.928C840.81 131.672 840.258 131.28 839.794 130.752C839.33 130.208 839.098 129.48 839.098 128.568C839.098 127.8 839.306 127.104 839.722 126.48C840.154 125.84 840.778 125.336 841.594 124.968C842.426 124.6 843.41 124.416 844.546 124.416C846.226 124.416 847.546 124.832 848.506 125.664C849.482 126.496 850.042 127.6 850.186 128.976H846.394C846.33 128.512 846.122 128.144 845.77 127.872C845.434 127.6 844.986 127.464 844.426 127.464C843.946 127.464 843.578 127.56 843.322 127.752C843.066 127.928 842.938 128.176 842.938 128.496C842.938 128.88 843.138 129.168 843.538 129.36C843.954 129.552 844.594 129.744 845.458 129.936C846.45 130.192 847.258 130.448 847.882 130.704C848.506 130.944 849.05 131.344 849.514 131.904C849.994 132.448 850.242 133.184 850.258 134.112C850.258 134.896 850.034 135.6 849.586 136.224C849.154 136.832 848.522 137.312 847.69 137.664C846.874 138.016 845.922 138.192 844.834 138.192Z" fill="white"/>
<path d="M722.836 129.36C723.812 129.568 724.596 130.056 725.188 130.824C725.78 131.576 726.076 132.44 726.076 133.416C726.076 134.824 725.58 135.944 724.588 136.776C723.612 137.592 722.244 138 720.484 138H712.636V121.152H720.22C721.932 121.152 723.268 121.544 724.228 122.328C725.204 123.112 725.692 124.176 725.692 125.52C725.692 126.512 725.428 127.336 724.9 127.992C724.388 128.648 723.7 129.104 722.836 129.36ZM716.74 127.968H719.428C720.1 127.968 720.612 127.824 720.964 127.536C721.332 127.232 721.516 126.792 721.516 126.216C721.516 125.64 721.332 125.2 720.964 124.896C720.612 124.592 720.1 124.44 719.428 124.44H716.74V127.968ZM719.764 134.688C720.452 134.688 720.98 134.536 721.348 134.232C721.732 133.912 721.924 133.456 721.924 132.864C721.924 132.272 721.724 131.808 721.324 131.472C720.94 131.136 720.404 130.968 719.716 130.968H716.74V134.688H719.764ZM734.553 138.192C733.241 138.192 732.057 137.912 731.001 137.352C729.961 136.792 729.137 135.992 728.529 134.952C727.937 133.912 727.641 132.696 727.641 131.304C727.641 129.928 727.945 128.72 728.553 127.68C729.161 126.624 729.993 125.816 731.049 125.256C732.105 124.696 733.289 124.416 734.601 124.416C735.913 124.416 737.097 124.696 738.153 125.256C739.209 125.816 740.041 126.624 740.649 127.68C741.257 128.72 741.561 129.928 741.561 131.304C741.561 132.68 741.249 133.896 740.625 134.952C740.017 135.992 739.177 136.792 738.105 137.352C737.049 137.912 735.865 138.192 734.553 138.192ZM734.553 134.64C735.337 134.64 736.001 134.352 736.545 133.776C737.105 133.2 737.385 132.376 737.385 131.304C737.385 130.232 737.113 129.408 736.569 128.832C736.041 128.256 735.385 127.968 734.601 127.968C733.801 127.968 733.137 128.256 732.609 128.832C732.081 129.392 731.817 130.216 731.817 131.304C731.817 132.376 732.073 133.2 732.585 133.776C733.113 134.352 733.769 134.64 734.553 134.64ZM742.922 131.28C742.922 129.904 743.178 128.696 743.69 127.656C744.218 126.616 744.93 125.816 745.826 125.256C746.722 124.696 747.722 124.416 748.826 124.416C749.77 124.416 750.594 124.608 751.298 124.992C752.018 125.376 752.57 125.88 752.954 126.504V124.608H757.058V138H752.954V136.104C752.554 136.728 751.994 137.232 751.274 137.616C750.57 138 749.746 138.192 748.802 138.192C747.714 138.192 746.722 137.912 745.826 137.352C744.93 136.776 744.218 135.968 743.69 134.928C743.178 133.872 742.922 132.656 742.922 131.28ZM752.954 131.304C752.954 130.28 752.666 129.472 752.09 128.88C751.53 128.288 750.842 127.992 750.026 127.992C749.21 127.992 748.514 128.288 747.938 128.88C747.378 129.456 747.098 130.256 747.098 131.28C747.098 132.304 747.378 133.12 747.938 133.728C748.514 134.32 749.21 134.616 750.026 134.616C750.842 134.616 751.53 134.32 752.09 133.728C752.666 133.136 752.954 132.328 752.954 131.304ZM765.475 138.192C764.307 138.192 763.267 137.992 762.355 137.592C761.443 137.192 760.723 136.648 760.195 135.96C759.667 135.256 759.371 134.472 759.307 133.608H763.363C763.411 134.072 763.627 134.448 764.011 134.736C764.395 135.024 764.867 135.168 765.427 135.168C765.939 135.168 766.331 135.072 766.603 134.88C766.891 134.672 767.035 134.408 767.035 134.088C767.035 133.704 766.835 133.424 766.435 133.248C766.035 133.056 765.387 132.848 764.491 132.624C763.531 132.4 762.731 132.168 762.091 131.928C761.451 131.672 760.899 131.28 760.435 130.752C759.971 130.208 759.739 129.48 759.739 128.568C759.739 127.8 759.947 127.104 760.363 126.48C760.795 125.84 761.419 125.336 762.235 124.968C763.067 124.6 764.051 124.416 765.187 124.416C766.867 124.416 768.187 124.832 769.147 125.664C770.123 126.496 770.683 127.6 770.827 128.976H767.035C766.971 128.512 766.763 128.144 766.411 127.872C766.075 127.6 765.627 127.464 765.067 127.464C764.587 127.464 764.219 127.56 763.963 127.752C763.707 127.928 763.579 128.176 763.579 128.496C763.579 128.88 763.779 129.168 764.179 129.36C764.595 129.552 765.235 129.744 766.099 129.936C767.091 130.192 767.899 130.448 768.523 130.704C769.147 130.944 769.691 131.344 770.155 131.904C770.635 132.448 770.883 133.184 770.899 134.112C770.899 134.896 770.675 135.6 770.227 136.224C769.795 136.832 769.163 137.312 768.331 137.664C767.515 138.016 766.563 138.192 765.475 138.192Z" fill="#FF543D"/>
<path d="M186.594 130.242V131.278H182.352V134.568H185.796V135.604H182.352V140H181.078V130.242H186.594ZM193.901 137.83H189.645L188.861 140H187.517L191.045 130.298H192.515L196.029 140H194.685L193.901 137.83ZM193.537 136.794L191.773 131.866L190.009 136.794H193.537ZM205.392 141.848L203.446 139.902C202.97 140.033 202.485 140.098 201.99 140.098C201.085 140.098 200.259 139.888 199.512 139.468C198.766 139.039 198.173 138.446 197.734 137.69C197.305 136.925 197.09 136.066 197.09 135.114C197.09 134.162 197.305 133.308 197.734 132.552C198.173 131.787 198.766 131.194 199.512 130.774C200.259 130.345 201.085 130.13 201.99 130.13C202.905 130.13 203.736 130.345 204.482 130.774C205.229 131.194 205.817 131.782 206.246 132.538C206.676 133.294 206.89 134.153 206.89 135.114C206.89 136.047 206.685 136.887 206.274 137.634C205.864 138.381 205.299 138.969 204.58 139.398L207.044 141.848H205.392ZM198.392 135.114C198.392 135.889 198.546 136.57 198.854 137.158C199.172 137.746 199.601 138.199 200.142 138.516C200.693 138.833 201.309 138.992 201.99 138.992C202.672 138.992 203.283 138.833 203.824 138.516C204.375 138.199 204.804 137.746 205.112 137.158C205.43 136.57 205.588 135.889 205.588 135.114C205.588 134.33 205.43 133.649 205.112 133.07C204.804 132.482 204.38 132.029 203.838 131.712C203.297 131.395 202.681 131.236 201.99 131.236C201.3 131.236 200.684 131.395 200.142 131.712C199.601 132.029 199.172 132.482 198.854 133.07C198.546 133.649 198.392 134.33 198.392 135.114ZM180.602 159.114C180.602 158.162 180.817 157.308 181.246 156.552C181.675 155.787 182.259 155.189 182.996 154.76C183.743 154.331 184.569 154.116 185.474 154.116C186.538 154.116 187.467 154.373 188.26 154.886C189.053 155.399 189.632 156.127 189.996 157.07H188.47C188.199 156.482 187.807 156.029 187.294 155.712C186.79 155.395 186.183 155.236 185.474 155.236C184.793 155.236 184.181 155.395 183.64 155.712C183.099 156.029 182.674 156.482 182.366 157.07C182.058 157.649 181.904 158.33 181.904 159.114C181.904 159.889 182.058 160.57 182.366 161.158C182.674 161.737 183.099 162.185 183.64 162.502C184.181 162.819 184.793 162.978 185.474 162.978C186.183 162.978 186.79 162.824 187.294 162.516C187.807 162.199 188.199 161.746 188.47 161.158H189.996C189.632 162.091 189.053 162.815 188.26 163.328C187.467 163.832 186.538 164.084 185.474 164.084C184.569 164.084 183.743 163.874 182.996 163.454C182.259 163.025 181.675 162.432 181.246 161.676C180.817 160.92 180.602 160.066 180.602 159.114ZM195.238 164.126C194.52 164.126 193.866 163.963 193.278 163.636C192.7 163.309 192.242 162.847 191.906 162.25C191.58 161.643 191.416 160.943 191.416 160.15C191.416 159.366 191.584 158.675 191.92 158.078C192.266 157.471 192.732 157.009 193.32 156.692C193.908 156.365 194.566 156.202 195.294 156.202C196.022 156.202 196.68 156.365 197.268 156.692C197.856 157.009 198.318 157.467 198.654 158.064C199 158.661 199.172 159.357 199.172 160.15C199.172 160.943 198.995 161.643 198.64 162.25C198.295 162.847 197.824 163.309 197.226 163.636C196.629 163.963 195.966 164.126 195.238 164.126ZM195.238 163.006C195.696 163.006 196.125 162.899 196.526 162.684C196.928 162.469 197.25 162.147 197.492 161.718C197.744 161.289 197.87 160.766 197.87 160.15C197.87 159.534 197.749 159.011 197.506 158.582C197.264 158.153 196.946 157.835 196.554 157.63C196.162 157.415 195.738 157.308 195.28 157.308C194.814 157.308 194.384 157.415 193.992 157.63C193.61 157.835 193.302 158.153 193.068 158.582C192.835 159.011 192.718 159.534 192.718 160.15C192.718 160.775 192.83 161.303 193.054 161.732C193.288 162.161 193.596 162.483 193.978 162.698C194.361 162.903 194.781 163.006 195.238 163.006ZM204.586 156.188C205.519 156.188 206.275 156.473 206.854 157.042C207.432 157.602 207.722 158.414 207.722 159.478V164H206.462V159.66C206.462 158.895 206.27 158.311 205.888 157.91C205.505 157.499 204.982 157.294 204.32 157.294C203.648 157.294 203.111 157.504 202.71 157.924C202.318 158.344 202.122 158.955 202.122 159.758V164H200.848V156.328H202.122V157.42C202.374 157.028 202.714 156.725 203.144 156.51C203.582 156.295 204.063 156.188 204.586 156.188ZM211.357 157.378V161.9C211.357 162.273 211.436 162.539 211.595 162.698C211.753 162.847 212.029 162.922 212.421 162.922H213.359V164H212.211C211.501 164 210.969 163.837 210.615 163.51C210.26 163.183 210.083 162.647 210.083 161.9V157.378H209.089V156.328H210.083V154.396H211.357V156.328H213.359V157.378H211.357ZM214.426 160.136C214.426 159.352 214.585 158.666 214.902 158.078C215.22 157.481 215.654 157.019 216.204 156.692C216.764 156.365 217.385 156.202 218.066 156.202C218.738 156.202 219.322 156.347 219.816 156.636C220.311 156.925 220.68 157.289 220.922 157.728V156.328H222.21V164H220.922V162.572C220.67 163.02 220.292 163.393 219.788 163.692C219.294 163.981 218.715 164.126 218.052 164.126C217.371 164.126 216.755 163.958 216.204 163.622C215.654 163.286 215.22 162.815 214.902 162.208C214.585 161.601 214.426 160.911 214.426 160.136ZM220.922 160.15C220.922 159.571 220.806 159.067 220.572 158.638C220.339 158.209 220.022 157.882 219.62 157.658C219.228 157.425 218.794 157.308 218.318 157.308C217.842 157.308 217.408 157.42 217.016 157.644C216.624 157.868 216.312 158.195 216.078 158.624C215.845 159.053 215.728 159.557 215.728 160.136C215.728 160.724 215.845 161.237 216.078 161.676C216.312 162.105 216.624 162.437 217.016 162.67C217.408 162.894 217.842 163.006 218.318 163.006C218.794 163.006 219.228 162.894 219.62 162.67C220.022 162.437 220.339 162.105 220.572 161.676C220.806 161.237 220.922 160.729 220.922 160.15ZM225.917 157.378V161.9C225.917 162.273 225.996 162.539 226.155 162.698C226.314 162.847 226.589 162.922 226.981 162.922H227.919V164H226.771C226.062 164 225.53 163.837 225.175 163.51C224.82 163.183 224.643 162.647 224.643 161.9V157.378H223.649V156.328H224.643V154.396H225.917V156.328H227.919V157.378H225.917ZM232.809 164.126C232.09 164.126 231.437 163.963 230.849 163.636C230.27 163.309 229.813 162.847 229.477 162.25C229.15 161.643 228.987 160.943 228.987 160.15C228.987 159.366 229.155 158.675 229.491 158.078C229.836 157.471 230.303 157.009 230.891 156.692C231.479 156.365 232.137 156.202 232.865 156.202C233.593 156.202 234.251 156.365 234.839 156.692C235.427 157.009 235.889 157.467 236.225 158.064C236.57 158.661 236.743 159.357 236.743 160.15C236.743 160.943 236.565 161.643 236.211 162.25C235.865 162.847 235.394 163.309 234.797 163.636C234.199 163.963 233.537 164.126 232.809 164.126ZM232.809 163.006C233.266 163.006 233.695 162.899 234.097 162.684C234.498 162.469 234.82 162.147 235.063 161.718C235.315 161.289 235.441 160.766 235.441 160.15C235.441 159.534 235.319 159.011 235.077 158.582C234.834 158.153 234.517 157.835 234.125 157.63C233.733 157.415 233.308 157.308 232.851 157.308C232.384 157.308 231.955 157.415 231.563 157.63C231.18 157.835 230.872 158.153 230.639 158.582C230.405 159.011 230.289 159.534 230.289 160.15C230.289 160.775 230.401 161.303 230.625 161.732C230.858 162.161 231.166 162.483 231.549 162.698C231.931 162.903 232.351 163.006 232.809 163.006ZM180.602 183.114C180.602 182.162 180.817 181.308 181.246 180.552C181.675 179.787 182.259 179.189 182.996 178.76C183.743 178.331 184.569 178.116 185.474 178.116C186.538 178.116 187.467 178.373 188.26 178.886C189.053 179.399 189.632 180.127 189.996 181.07H188.47C188.199 180.482 187.807 180.029 187.294 179.712C186.79 179.395 186.183 179.236 185.474 179.236C184.793 179.236 184.181 179.395 183.64 179.712C183.099 180.029 182.674 180.482 182.366 181.07C182.058 181.649 181.904 182.33 181.904 183.114C181.904 183.889 182.058 184.57 182.366 185.158C182.674 185.737 183.099 186.185 183.64 186.502C184.181 186.819 184.793 186.978 185.474 186.978C186.183 186.978 186.79 186.824 187.294 186.516C187.807 186.199 188.199 185.746 188.47 185.158H189.996C189.632 186.091 189.053 186.815 188.26 187.328C187.467 187.832 186.538 188.084 185.474 188.084C184.569 188.084 183.743 187.874 182.996 187.454C182.259 187.025 181.675 186.432 181.246 185.676C180.817 184.92 180.602 184.066 180.602 183.114ZM191.416 184.136C191.416 183.352 191.575 182.666 191.892 182.078C192.21 181.481 192.644 181.019 193.194 180.692C193.754 180.365 194.375 180.202 195.056 180.202C195.728 180.202 196.312 180.347 196.806 180.636C197.301 180.925 197.67 181.289 197.912 181.728V180.328H199.2V188H197.912V186.572C197.66 187.02 197.282 187.393 196.778 187.692C196.284 187.981 195.705 188.126 195.042 188.126C194.361 188.126 193.745 187.958 193.194 187.622C192.644 187.286 192.21 186.815 191.892 186.208C191.575 185.601 191.416 184.911 191.416 184.136ZM197.912 184.15C197.912 183.571 197.796 183.067 197.562 182.638C197.329 182.209 197.012 181.882 196.61 181.658C196.218 181.425 195.784 181.308 195.308 181.308C194.832 181.308 194.398 181.42 194.006 181.644C193.614 181.868 193.302 182.195 193.068 182.624C192.835 183.053 192.718 183.557 192.718 184.136C192.718 184.724 192.835 185.237 193.068 185.676C193.302 186.105 193.614 186.437 194.006 186.67C194.398 186.894 194.832 187.006 195.308 187.006C195.784 187.006 196.218 186.894 196.61 186.67C197.012 186.437 197.329 186.105 197.562 185.676C197.796 185.237 197.912 184.729 197.912 184.15ZM202.627 181.574C202.851 181.135 203.169 180.795 203.579 180.552C203.999 180.309 204.508 180.188 205.105 180.188V181.504H204.769C203.341 181.504 202.627 182.279 202.627 183.828V188H201.353V180.328H202.627V181.574ZM207.85 181.574C208.074 181.135 208.391 180.795 208.802 180.552C209.222 180.309 209.731 180.188 210.328 180.188V181.504H209.992C208.564 181.504 207.85 182.279 207.85 183.828V188H206.576V180.328H207.85V181.574ZM218.799 183.87C218.799 184.113 218.785 184.369 218.757 184.64H212.625C212.671 185.396 212.928 185.989 213.395 186.418C213.871 186.838 214.445 187.048 215.117 187.048C215.667 187.048 216.125 186.922 216.489 186.67C216.862 186.409 217.123 186.063 217.273 185.634H218.645C218.439 186.371 218.029 186.973 217.413 187.44C216.797 187.897 216.031 188.126 215.117 188.126C214.389 188.126 213.735 187.963 213.157 187.636C212.587 187.309 212.139 186.847 211.813 186.25C211.486 185.643 211.323 184.943 211.323 184.15C211.323 183.357 211.481 182.661 211.799 182.064C212.116 181.467 212.559 181.009 213.129 180.692C213.707 180.365 214.37 180.202 215.117 180.202C215.845 180.202 216.489 180.361 217.049 180.678C217.609 180.995 218.038 181.434 218.337 181.994C218.645 182.545 218.799 183.17 218.799 183.87ZM217.483 183.604C217.483 183.119 217.375 182.703 217.161 182.358C216.946 182.003 216.652 181.737 216.279 181.56C215.915 181.373 215.509 181.28 215.061 181.28C214.417 181.28 213.866 181.485 213.409 181.896C212.961 182.307 212.704 182.876 212.639 183.604H217.483ZM221.138 179.082C220.896 179.082 220.69 178.998 220.522 178.83C220.354 178.662 220.27 178.457 220.27 178.214C220.27 177.971 220.354 177.766 220.522 177.598C220.69 177.43 220.896 177.346 221.138 177.346C221.372 177.346 221.568 177.43 221.726 177.598C221.894 177.766 221.978 177.971 221.978 178.214C221.978 178.457 221.894 178.662 221.726 178.83C221.568 178.998 221.372 179.082 221.138 179.082ZM221.754 180.328V188H220.48V180.328H221.754ZM225.2 181.574C225.424 181.135 225.741 180.795 226.152 180.552C226.572 180.309 227.08 180.188 227.678 180.188V181.504H227.342C225.914 181.504 225.2 182.279 225.2 183.828V188H223.926V180.328H225.2V181.574ZM228.672 184.136C228.672 183.352 228.831 182.666 229.148 182.078C229.466 181.481 229.9 181.019 230.45 180.692C231.01 180.365 231.631 180.202 232.312 180.202C232.984 180.202 233.568 180.347 234.062 180.636C234.557 180.925 234.926 181.289 235.168 181.728V180.328H236.456V188H235.168V186.572C234.916 187.02 234.538 187.393 234.034 187.692C233.54 187.981 232.961 188.126 232.298 188.126C231.617 188.126 231.001 187.958 230.45 187.622C229.9 187.286 229.466 186.815 229.148 186.208C228.831 185.601 228.672 184.911 228.672 184.136ZM235.168 184.15C235.168 183.571 235.052 183.067 234.818 182.638C234.585 182.209 234.268 181.882 233.866 181.658C233.474 181.425 233.04 181.308 232.564 181.308C232.088 181.308 231.654 181.42 231.262 181.644C230.87 181.868 230.558 182.195 230.324 182.624C230.091 183.053 229.974 183.557 229.974 184.136C229.974 184.724 230.091 185.237 230.324 185.676C230.558 186.105 230.87 186.437 231.262 186.67C231.654 186.894 232.088 187.006 232.564 187.006C233.04 187.006 233.474 186.894 233.866 186.67C234.268 186.437 234.585 186.105 234.818 185.676C235.052 185.237 235.168 184.729 235.168 184.15ZM186.846 209.83H182.59L181.806 212H180.462L183.99 202.298H185.46L188.974 212H187.63L186.846 209.83ZM186.482 208.794L184.718 203.866L182.954 208.794H186.482ZM191.786 201.64V212H190.512V201.64H191.786ZM193.481 208.136C193.481 207.352 193.64 206.666 193.957 206.078C194.274 205.481 194.708 205.019 195.259 204.692C195.819 204.365 196.44 204.202 197.121 204.202C197.793 204.202 198.376 204.347 198.871 204.636C199.366 204.925 199.734 205.289 199.977 205.728V204.328H201.265V212H199.977V210.572C199.725 211.02 199.347 211.393 198.843 211.692C198.348 211.981 197.77 212.126 197.107 212.126C196.426 212.126 195.81 211.958 195.259 211.622C194.708 211.286 194.274 210.815 193.957 210.208C193.64 209.601 193.481 208.911 193.481 208.136ZM199.977 208.15C199.977 207.571 199.86 207.067 199.627 206.638C199.394 206.209 199.076 205.882 198.675 205.658C198.283 205.425 197.849 205.308 197.373 205.308C196.897 205.308 196.463 205.42 196.071 205.644C195.679 205.868 195.366 206.195 195.133 206.624C194.9 207.053 194.783 207.557 194.783 208.136C194.783 208.724 194.9 209.237 195.133 209.676C195.366 210.105 195.679 210.437 196.071 210.67C196.463 210.894 196.897 211.006 197.373 211.006C197.849 211.006 198.283 210.894 198.675 210.67C199.076 210.437 199.394 210.105 199.627 209.676C199.86 209.237 199.977 208.729 199.977 208.15ZM212.644 204.188C213.241 204.188 213.773 204.314 214.24 204.566C214.707 204.809 215.075 205.177 215.346 205.672C215.617 206.167 215.752 206.769 215.752 207.478V212H214.492V207.66C214.492 206.895 214.301 206.311 213.918 205.91C213.545 205.499 213.036 205.294 212.392 205.294C211.729 205.294 211.202 205.509 210.81 205.938C210.418 206.358 210.222 206.969 210.222 207.772V212H208.962V207.66C208.962 206.895 208.771 206.311 208.388 205.91C208.015 205.499 207.506 205.294 206.862 205.294C206.199 205.294 205.672 205.509 205.28 205.938C204.888 206.358 204.692 206.969 204.692 207.772V212H203.418V204.328H204.692V205.434C204.944 205.033 205.28 204.725 205.7 204.51C206.129 204.295 206.601 204.188 207.114 204.188C207.758 204.188 208.327 204.333 208.822 204.622C209.317 204.911 209.685 205.336 209.928 205.896C210.143 205.355 210.497 204.935 210.992 204.636C211.487 204.337 212.037 204.188 212.644 204.188ZM224.842 207.87C224.842 208.113 224.828 208.369 224.8 208.64H218.668C218.714 209.396 218.971 209.989 219.438 210.418C219.914 210.838 220.488 211.048 221.16 211.048C221.71 211.048 222.168 210.922 222.532 210.67C222.905 210.409 223.166 210.063 223.316 209.634H224.688C224.482 210.371 224.072 210.973 223.456 211.44C222.84 211.897 222.074 212.126 221.16 212.126C220.432 212.126 219.778 211.963 219.2 211.636C218.63 211.309 218.182 210.847 217.856 210.25C217.529 209.643 217.366 208.943 217.366 208.15C217.366 207.357 217.524 206.661 217.842 206.064C218.159 205.467 218.602 205.009 219.172 204.692C219.75 204.365 220.413 204.202 221.16 204.202C221.888 204.202 222.532 204.361 223.092 204.678C223.652 204.995 224.081 205.434 224.38 205.994C224.688 206.545 224.842 207.17 224.842 207.87ZM223.526 207.604C223.526 207.119 223.418 206.703 223.204 206.358C222.989 206.003 222.695 205.737 222.322 205.56C221.958 205.373 221.552 205.28 221.104 205.28C220.46 205.28 219.909 205.485 219.452 205.896C219.004 206.307 218.747 206.876 218.682 207.604H223.526ZM226.047 208.136C226.047 207.352 226.206 206.666 226.523 206.078C226.841 205.481 227.275 205.019 227.825 204.692C228.385 204.365 229.011 204.202 229.701 204.202C230.299 204.202 230.854 204.342 231.367 204.622C231.881 204.893 232.273 205.252 232.543 205.7V201.64H233.831V212H232.543V210.558C232.291 211.015 231.918 211.393 231.423 211.692C230.929 211.981 230.35 212.126 229.687 212.126C229.006 212.126 228.385 211.958 227.825 211.622C227.275 211.286 226.841 210.815 226.523 210.208C226.206 209.601 226.047 208.911 226.047 208.136ZM232.543 208.15C232.543 207.571 232.427 207.067 232.193 206.638C231.96 206.209 231.643 205.882 231.241 205.658C230.849 205.425 230.415 205.308 229.939 205.308C229.463 205.308 229.029 205.42 228.637 205.644C228.245 205.868 227.933 206.195 227.699 206.624C227.466 207.053 227.349 207.557 227.349 208.136C227.349 208.724 227.466 209.237 227.699 209.676C227.933 210.105 228.245 210.437 228.637 210.67C229.029 210.894 229.463 211.006 229.939 211.006C230.415 211.006 230.849 210.894 231.241 210.67C231.643 210.437 231.96 210.105 232.193 209.676C232.427 209.237 232.543 208.729 232.543 208.15ZM235.508 208.136C235.508 207.352 235.667 206.666 235.984 206.078C236.302 205.481 236.736 205.019 237.286 204.692C237.846 204.365 238.467 204.202 239.148 204.202C239.82 204.202 240.404 204.347 240.898 204.636C241.393 204.925 241.762 205.289 242.004 205.728V204.328H243.292V212H242.004V210.572C241.752 211.02 241.374 211.393 240.87 211.692C240.376 211.981 239.797 212.126 239.134 212.126C238.453 212.126 237.837 211.958 237.286 211.622C236.736 211.286 236.302 210.815 235.984 210.208C235.667 209.601 235.508 208.911 235.508 208.136ZM242.004 208.15C242.004 207.571 241.888 207.067 241.654 206.638C241.421 206.209 241.104 205.882 240.702 205.658C240.31 205.425 239.876 205.308 239.4 205.308C238.924 205.308 238.49 205.42 238.098 205.644C237.706 205.868 237.394 206.195 237.16 206.624C236.927 207.053 236.81 207.557 236.81 208.136C236.81 208.724 236.927 209.237 237.16 209.676C237.394 210.105 237.706 210.437 238.098 210.67C238.49 210.894 238.924 211.006 239.4 211.006C239.876 211.006 240.31 210.894 240.702 210.67C241.104 210.437 241.421 210.105 241.654 209.676C241.888 209.237 242.004 208.729 242.004 208.15ZM248.702 208.136C248.702 207.352 248.86 206.666 249.178 206.078C249.495 205.481 249.929 205.019 250.48 204.692C251.04 204.365 251.665 204.202 252.356 204.202C252.953 204.202 253.508 204.342 254.022 204.622C254.535 204.893 254.927 205.252 255.198 205.7V201.64H256.486V212H255.198V210.558C254.946 211.015 254.572 211.393 254.078 211.692C253.583 211.981 253.004 212.126 252.342 212.126C251.66 212.126 251.04 211.958 250.48 211.622C249.929 211.286 249.495 210.815 249.178 210.208C248.86 209.601 248.702 208.911 248.702 208.136ZM255.198 208.15C255.198 207.571 255.081 207.067 254.848 206.638C254.614 206.209 254.297 205.882 253.896 205.658C253.504 205.425 253.07 205.308 252.594 205.308C252.118 205.308 251.684 205.42 251.292 205.644C250.9 205.868 250.587 206.195 250.354 206.624C250.12 207.053 250.004 207.557 250.004 208.136C250.004 208.724 250.12 209.237 250.354 209.676C250.587 210.105 250.9 210.437 251.292 210.67C251.684 210.894 252.118 211.006 252.594 211.006C253.07 211.006 253.504 210.894 253.896 210.67C254.297 210.437 254.614 210.105 254.848 209.676C255.081 209.237 255.198 208.729 255.198 208.15ZM261.985 212.126C261.266 212.126 260.613 211.963 260.025 211.636C259.446 211.309 258.989 210.847 258.653 210.25C258.326 209.643 258.163 208.943 258.163 208.15C258.163 207.366 258.331 206.675 258.667 206.078C259.012 205.471 259.479 205.009 260.067 204.692C260.655 204.365 261.313 204.202 262.041 204.202C262.769 204.202 263.427 204.365 264.015 204.692C264.603 205.009 265.065 205.467 265.401 206.064C265.746 206.661 265.919 207.357 265.919 208.15C265.919 208.943 265.741 209.643 265.387 210.25C265.041 210.847 264.57 211.309 263.973 211.636C263.375 211.963 262.713 212.126 261.985 212.126ZM261.985 211.006C262.442 211.006 262.871 210.899 263.273 210.684C263.674 210.469 263.996 210.147 264.239 209.718C264.491 209.289 264.617 208.766 264.617 208.15C264.617 207.534 264.495 207.011 264.253 206.582C264.01 206.153 263.693 205.835 263.301 205.63C262.909 205.415 262.484 205.308 262.027 205.308C261.56 205.308 261.131 205.415 260.739 205.63C260.356 205.835 260.048 206.153 259.815 206.582C259.581 207.011 259.465 207.534 259.465 208.15C259.465 208.775 259.577 209.303 259.801 209.732C260.034 210.161 260.342 210.483 260.725 210.698C261.107 210.903 261.527 211.006 261.985 211.006ZM277.094 209.83H272.838L272.054 212H270.71L274.238 202.298H275.708L279.222 212H277.878L277.094 209.83ZM276.73 208.794L274.966 203.866L273.202 208.794H276.73ZM284.498 204.188C285.431 204.188 286.187 204.473 286.766 205.042C287.344 205.602 287.634 206.414 287.634 207.478V212H286.374V207.66C286.374 206.895 286.182 206.311 285.8 205.91C285.417 205.499 284.894 205.294 284.232 205.294C283.56 205.294 283.023 205.504 282.622 205.924C282.23 206.344 282.034 206.955 282.034 207.758V212H280.76V204.328H282.034V205.42C282.286 205.028 282.626 204.725 283.056 204.51C283.494 204.295 283.975 204.188 284.498 204.188ZM290.401 203.082C290.158 203.082 289.953 202.998 289.785 202.83C289.626 202.662 289.547 202.457 289.547 202.214C289.547 201.971 289.626 201.766 289.785 201.598C289.953 201.43 290.158 201.346 290.401 201.346C290.643 201.346 290.844 201.43 291.003 201.598C291.171 201.766 291.255 201.971 291.255 202.214C291.255 202.457 291.171 202.662 291.003 202.83C290.844 202.998 290.643 203.082 290.401 203.082ZM291.031 213.666C291.031 214.347 290.858 214.847 290.513 215.164C290.167 215.481 289.663 215.64 289.001 215.64H288.259V214.562H288.791C289.145 214.562 289.393 214.492 289.533 214.352C289.682 214.212 289.757 213.974 289.757 213.638V204.328H291.031V213.666ZM296.533 212.126C295.815 212.126 295.161 211.963 294.573 211.636C293.995 211.309 293.537 210.847 293.201 210.25C292.875 209.643 292.711 208.943 292.711 208.15C292.711 207.366 292.879 206.675 293.215 206.078C293.561 205.471 294.027 205.009 294.615 204.692C295.203 204.365 295.861 204.202 296.589 204.202C297.317 204.202 297.975 204.365 298.563 204.692C299.151 205.009 299.613 205.467 299.949 206.064C300.295 206.661 300.467 207.357 300.467 208.15C300.467 208.943 300.29 209.643 299.935 210.25C299.59 210.847 299.119 211.309 298.521 211.636C297.924 211.963 297.261 212.126 296.533 212.126ZM296.533 211.006C296.991 211.006 297.42 210.899 297.821 210.684C298.223 210.469 298.545 210.147 298.787 209.718C299.039 209.289 299.165 208.766 299.165 208.15C299.165 207.534 299.044 207.011 298.801 206.582C298.559 206.153 298.241 205.835 297.849 205.63C297.457 205.415 297.033 205.308 296.575 205.308C296.109 205.308 295.679 205.415 295.287 205.63C294.905 205.835 294.597 206.153 294.363 206.582C294.13 207.011 294.013 207.534 294.013 208.15C294.013 208.775 294.125 209.303 294.349 209.732C294.583 210.161 294.891 210.483 295.273 210.698C295.656 210.903 296.076 211.006 296.533 211.006ZM304.858 212.126C304.27 212.126 303.743 212.028 303.276 211.832C302.81 211.627 302.441 211.347 302.17 210.992C301.9 210.628 301.75 210.213 301.722 209.746H303.038C303.076 210.129 303.253 210.441 303.57 210.684C303.897 210.927 304.322 211.048 304.844 211.048C305.33 211.048 305.712 210.941 305.992 210.726C306.272 210.511 306.412 210.241 306.412 209.914C306.412 209.578 306.263 209.331 305.964 209.172C305.666 209.004 305.204 208.841 304.578 208.682C304.009 208.533 303.542 208.383 303.178 208.234C302.824 208.075 302.516 207.847 302.254 207.548C302.002 207.24 301.876 206.839 301.876 206.344C301.876 205.952 301.993 205.593 302.226 205.266C302.46 204.939 302.791 204.683 303.22 204.496C303.65 204.3 304.14 204.202 304.69 204.202C305.54 204.202 306.226 204.417 306.748 204.846C307.271 205.275 307.551 205.863 307.588 206.61H306.314C306.286 206.209 306.123 205.887 305.824 205.644C305.535 205.401 305.143 205.28 304.648 205.28C304.191 205.28 303.827 205.378 303.556 205.574C303.286 205.77 303.15 206.027 303.15 206.344C303.15 206.596 303.23 206.806 303.388 206.974C303.556 207.133 303.762 207.263 304.004 207.366C304.256 207.459 304.602 207.567 305.04 207.688C305.591 207.837 306.039 207.987 306.384 208.136C306.73 208.276 307.024 208.491 307.266 208.78C307.518 209.069 307.649 209.447 307.658 209.914C307.658 210.334 307.542 210.712 307.308 211.048C307.075 211.384 306.744 211.65 306.314 211.846C305.894 212.033 305.409 212.126 304.858 212.126ZM310.773 210.236L309.205 214.002H308.351L309.373 210.236H310.773ZM315.601 210.978C316.786 210.026 317.715 209.247 318.387 208.64C319.059 208.024 319.623 207.385 320.081 206.722C320.547 206.05 320.781 205.392 320.781 204.748C320.781 204.141 320.631 203.665 320.333 203.32C320.043 202.965 319.572 202.788 318.919 202.788C318.284 202.788 317.789 202.989 317.435 203.39C317.089 203.782 316.903 204.309 316.875 204.972H315.643C315.68 203.927 315.997 203.119 316.595 202.55C317.192 201.981 317.962 201.696 318.905 201.696C319.866 201.696 320.627 201.962 321.187 202.494C321.756 203.026 322.041 203.759 322.041 204.692C322.041 205.467 321.807 206.223 321.341 206.96C320.883 207.688 320.361 208.332 319.773 208.892C319.185 209.443 318.433 210.087 317.519 210.824H322.335V211.888H315.601V210.978ZM323.779 204.426C323.845 203.567 324.176 202.895 324.773 202.41C325.371 201.925 326.145 201.682 327.097 201.682C327.732 201.682 328.278 201.799 328.735 202.032C329.202 202.256 329.552 202.564 329.785 202.956C330.028 203.348 330.149 203.791 330.149 204.286C330.149 204.865 329.981 205.364 329.645 205.784C329.319 206.204 328.889 206.475 328.357 206.596V206.666C328.964 206.815 329.445 207.109 329.799 207.548C330.154 207.987 330.331 208.561 330.331 209.27C330.331 209.802 330.21 210.283 329.967 210.712C329.725 211.132 329.361 211.463 328.875 211.706C328.39 211.949 327.807 212.07 327.125 212.07C326.136 212.07 325.324 211.813 324.689 211.3C324.055 210.777 323.7 210.04 323.625 209.088H324.857C324.923 209.648 325.151 210.105 325.543 210.46C325.935 210.815 326.458 210.992 327.111 210.992C327.765 210.992 328.259 210.824 328.595 210.488C328.941 210.143 329.113 209.699 329.113 209.158C329.113 208.458 328.88 207.954 328.413 207.646C327.947 207.338 327.242 207.184 326.299 207.184H325.977V206.12H326.313C327.172 206.111 327.821 205.971 328.259 205.7C328.698 205.42 328.917 204.991 328.917 204.412C328.917 203.917 328.754 203.521 328.427 203.222C328.11 202.923 327.653 202.774 327.055 202.774C326.477 202.774 326.01 202.923 325.655 203.222C325.301 203.521 325.091 203.922 325.025 204.426H323.779ZM341.762 209.83H337.506L336.722 212H335.378L338.906 202.298H340.376L343.89 212H342.546L341.762 209.83ZM341.398 208.794L339.634 203.866L337.87 208.794H341.398ZM349.166 204.188C350.099 204.188 350.855 204.473 351.434 205.042C352.012 205.602 352.302 206.414 352.302 207.478V212H351.042V207.66C351.042 206.895 350.85 206.311 350.468 205.91C350.085 205.499 349.562 205.294 348.9 205.294C348.228 205.294 347.691 205.504 347.29 205.924C346.898 206.344 346.702 206.955 346.702 207.758V212H345.428V204.328H346.702V205.42C346.954 205.028 347.294 204.725 347.724 204.51C348.162 204.295 348.643 204.188 349.166 204.188ZM353.907 208.136C353.907 207.352 354.065 206.666 354.383 206.078C354.7 205.481 355.134 205.019 355.685 204.692C356.245 204.365 356.87 204.202 357.561 204.202C358.158 204.202 358.713 204.342 359.227 204.622C359.74 204.893 360.132 205.252 360.403 205.7V201.64H361.691V212H360.403V210.558C360.151 211.015 359.777 211.393 359.283 211.692C358.788 211.981 358.209 212.126 357.547 212.126C356.865 212.126 356.245 211.958 355.685 211.622C355.134 211.286 354.7 210.815 354.383 210.208C354.065 209.601 353.907 208.911 353.907 208.136ZM360.403 208.15C360.403 207.571 360.286 207.067 360.053 206.638C359.819 206.209 359.502 205.882 359.101 205.658C358.709 205.425 358.275 205.308 357.799 205.308C357.323 205.308 356.889 205.42 356.497 205.644C356.105 205.868 355.792 206.195 355.559 206.624C355.325 207.053 355.209 207.557 355.209 208.136C355.209 208.724 355.325 209.237 355.559 209.676C355.792 210.105 356.105 210.437 356.497 210.67C356.889 210.894 357.323 211.006 357.799 211.006C358.275 211.006 358.709 210.894 359.101 210.67C359.502 210.437 359.819 210.105 360.053 209.676C360.286 209.237 360.403 208.729 360.403 208.15ZM363.368 208.136C363.368 207.352 363.526 206.666 363.844 206.078C364.161 205.481 364.595 205.019 365.146 204.692C365.706 204.365 366.326 204.202 367.008 204.202C367.68 204.202 368.263 204.347 368.758 204.636C369.252 204.925 369.621 205.289 369.864 205.728V204.328H371.152V212H369.864V210.572C369.612 211.02 369.234 211.393 368.73 211.692C368.235 211.981 367.656 212.126 366.994 212.126C366.312 212.126 365.696 211.958 365.146 211.622C364.595 211.286 364.161 210.815 363.844 210.208C363.526 209.601 363.368 208.911 363.368 208.136ZM369.864 208.15C369.864 207.571 369.747 207.067 369.514 206.638C369.28 206.209 368.963 205.882 368.562 205.658C368.17 205.425 367.736 205.308 367.26 205.308C366.784 205.308 366.35 205.42 365.958 205.644C365.566 205.868 365.253 206.195 365.02 206.624C364.786 207.053 364.67 207.557 364.67 208.136C364.67 208.724 364.786 209.237 365.02 209.676C365.253 210.105 365.566 210.437 365.958 210.67C366.35 210.894 366.784 211.006 367.26 211.006C367.736 211.006 368.17 210.894 368.562 210.67C368.963 210.437 369.28 210.105 369.514 209.676C369.747 209.237 369.864 208.729 369.864 208.15ZM374.579 205.574C374.803 205.135 375.12 204.795 375.531 204.552C375.951 204.309 376.459 204.188 377.057 204.188V205.504H376.721C375.293 205.504 374.579 206.279 374.579 207.828V212H373.305V204.328H374.579V205.574ZM387.58 206.33V207.408H381.994V206.33H387.58ZM393.227 207.114C393.227 206.162 393.442 205.308 393.871 204.552C394.3 203.787 394.884 203.189 395.621 202.76C396.368 202.331 397.194 202.116 398.099 202.116C399.163 202.116 400.092 202.373 400.885 202.886C401.678 203.399 402.257 204.127 402.621 205.07H401.095C400.824 204.482 400.432 204.029 399.919 203.712C399.415 203.395 398.808 203.236 398.099 203.236C397.418 203.236 396.806 203.395 396.265 203.712C395.724 204.029 395.299 204.482 394.991 205.07C394.683 205.649 394.529 206.33 394.529 207.114C394.529 207.889 394.683 208.57 394.991 209.158C395.299 209.737 395.724 210.185 396.265 210.502C396.806 210.819 397.418 210.978 398.099 210.978C398.808 210.978 399.415 210.824 399.919 210.516C400.432 210.199 400.824 209.746 401.095 209.158H402.621C402.257 210.091 401.678 210.815 400.885 211.328C400.092 211.832 399.163 212.084 398.099 212.084C397.194 212.084 396.368 211.874 395.621 211.454C394.884 211.025 394.3 210.432 393.871 209.676C393.442 208.92 393.227 208.066 393.227 207.114ZM411.321 204.328V212H410.047V210.866C409.805 211.258 409.464 211.566 409.025 211.79C408.596 212.005 408.12 212.112 407.597 212.112C407 212.112 406.463 211.991 405.987 211.748C405.511 211.496 405.133 211.123 404.853 210.628C404.583 210.133 404.447 209.531 404.447 208.822V204.328H405.707V208.654C405.707 209.41 405.899 209.993 406.281 210.404C406.664 210.805 407.187 211.006 407.849 211.006C408.531 211.006 409.067 210.796 409.459 210.376C409.851 209.956 410.047 209.345 410.047 208.542V204.328H411.321ZM414.747 205.574C414.971 205.135 415.288 204.795 415.699 204.552C416.119 204.309 416.627 204.188 417.225 204.188V205.504H416.889C415.461 205.504 414.747 206.279 414.747 207.828V212H413.473V204.328H414.747V205.574ZM419.353 203.082C419.111 203.082 418.905 202.998 418.737 202.83C418.569 202.662 418.485 202.457 418.485 202.214C418.485 201.971 418.569 201.766 418.737 201.598C418.905 201.43 419.111 201.346 419.353 201.346C419.587 201.346 419.783 201.43 419.941 201.598C420.109 201.766 420.193 201.971 420.193 202.214C420.193 202.457 420.109 202.662 419.941 202.83C419.783 202.998 419.587 203.082 419.353 203.082ZM419.969 204.328V212H418.695V204.328H419.969ZM423.695 205.378V209.9C423.695 210.273 423.774 210.539 423.933 210.698C424.091 210.847 424.367 210.922 424.758 210.922H425.697V212H424.549C423.839 212 423.307 211.837 422.953 211.51C422.598 211.183 422.421 210.647 422.421 209.9V205.378H421.427V204.328H422.421V202.396H423.695V204.328H425.697V205.378H423.695ZM427.898 203.082C427.655 203.082 427.45 202.998 427.282 202.83C427.114 202.662 427.03 202.457 427.03 202.214C427.03 201.971 427.114 201.766 427.282 201.598C427.45 201.43 427.655 201.346 427.898 201.346C428.131 201.346 428.327 201.43 428.486 201.598C428.654 201.766 428.738 201.971 428.738 202.214C428.738 202.457 428.654 202.662 428.486 202.83C428.327 202.998 428.131 203.082 427.898 203.082ZM428.514 204.328V212H427.24V204.328H428.514ZM431.959 205.756C432.221 205.299 432.603 204.925 433.107 204.636C433.611 204.347 434.185 204.202 434.829 204.202C435.52 204.202 436.141 204.365 436.691 204.692C437.242 205.019 437.676 205.481 437.993 206.078C438.311 206.666 438.469 207.352 438.469 208.136C438.469 208.911 438.311 209.601 437.993 210.208C437.676 210.815 437.237 211.286 436.677 211.622C436.127 211.958 435.511 212.126 434.829 212.126C434.167 212.126 433.583 211.981 433.079 211.692C432.585 211.403 432.211 211.034 431.959 210.586V212H430.685V201.64H431.959V205.756ZM437.167 208.136C437.167 207.557 437.051 207.053 436.817 206.624C436.584 206.195 436.267 205.868 435.865 205.644C435.473 205.42 435.039 205.308 434.563 205.308C434.097 205.308 433.663 205.425 433.261 205.658C432.869 205.882 432.552 206.213 432.309 206.652C432.076 207.081 431.959 207.581 431.959 208.15C431.959 208.729 432.076 209.237 432.309 209.676C432.552 210.105 432.869 210.437 433.261 210.67C433.663 210.894 434.097 211.006 434.563 211.006C435.039 211.006 435.473 210.894 435.865 210.67C436.267 210.437 436.584 210.105 436.817 209.676C437.051 209.237 437.167 208.724 437.167 208.136ZM439.67 208.136C439.67 207.352 439.829 206.666 440.146 206.078C440.464 205.481 440.898 205.019 441.448 204.692C442.008 204.365 442.629 204.202 443.31 204.202C443.982 204.202 444.566 204.347 445.06 204.636C445.555 204.925 445.924 205.289 446.166 205.728V204.328H447.454V212H446.166V210.572C445.914 211.02 445.536 211.393 445.032 211.692C444.538 211.981 443.959 212.126 443.296 212.126C442.615 212.126 441.999 211.958 441.448 211.622C440.898 211.286 440.464 210.815 440.146 210.208C439.829 209.601 439.67 208.911 439.67 208.136ZM446.166 208.15C446.166 207.571 446.05 207.067 445.816 206.638C445.583 206.209 445.266 205.882 444.864 205.658C444.472 205.425 444.038 205.308 443.562 205.308C443.086 205.308 442.652 205.42 442.26 205.644C441.868 205.868 441.556 206.195 441.322 206.624C441.089 207.053 440.972 207.557 440.972 208.136C440.972 208.724 441.089 209.237 441.322 209.676C441.556 210.105 441.868 210.437 442.26 210.67C442.652 210.894 443.086 211.006 443.562 211.006C444.038 211.006 444.472 210.894 444.864 210.67C445.266 210.437 445.583 210.105 445.816 209.676C446.05 209.237 446.166 208.729 446.166 208.15Z" fill="white"/>
</g>
</svg>
