<svg width="1438" height="1009" viewBox="0 0 1438 1009" fill="none" xmlns="http://www.w3.org/2000/svg">
<g clip-path="url(#clip0_60_22)">
<rect width="1438" height="1009" fill="#056365"/>
<g filter="url(#filter0_d_60_22)">
<mask id="mask0_60_22" style="mask-type:alpha" maskUnits="userSpaceOnUse" x="0" y="-23" width="1438" height="1032">
<rect y="-23" width="1438" height="1032" rx="16" fill="#F8B602"/>
</mask>
<g mask="url(#mask0_60_22)">
<path d="M0 -6.99999C0 -15.8365 7.16344 -23 16 -23H1422C1430.84 -23 1438 -15.8366 1438 -7V993C1438 1001.84 1430.69 1009 1421.85 1009C875.702 1009 562.298 1009 16.1498 1009C7.31328 1009 0 1001.84 0 993V-6.99999Z" fill="#056365"/>
<path opacity="0.25" d="M616 -22.5C616 164.448 436.466 316 215 316C-6.46619 316 -186 164.448 -186 -22.5C-186 -209.448 -6.46619 -361 215 -361C436.466 -361 616 -209.448 616 -22.5ZM-103.706 -22.5C-103.706 126.083 38.9835 246.532 215 246.532C391.017 246.532 533.706 126.083 533.706 -22.5C533.706 -171.083 391.017 -291.533 215 -291.533C38.9835 -291.533 -103.706 -171.083 -103.706 -22.5Z" fill="white"/>
<path opacity="0.25" d="M1759 801.5C1759 954.207 1635.65 1078 1483.5 1078C1331.35 1078 1208 954.207 1208 801.5C1208 648.793 1331.35 525 1483.5 525C1635.65 525 1759 648.793 1759 801.5ZM1302.35 801.5C1302.35 901.911 1383.45 983.31 1483.5 983.31C1583.55 983.31 1664.65 901.911 1664.65 801.5C1664.65 701.089 1583.55 619.69 1483.5 619.69C1383.45 619.69 1302.35 701.089 1302.35 801.5Z" fill="white"/>
<path opacity="0.25" d="M574 887C574 1028.38 435.656 1143 265 1143C94.344 1143 -44 1028.38 -44 887C-44 745.615 94.344 631 265 631C435.656 631 574 745.615 574 887ZM61.82 887C61.82 979.966 152.787 1055.33 265 1055.33C377.213 1055.33 468.18 979.966 468.18 887C468.18 794.034 377.213 718.67 265 718.67C152.787 718.67 61.82 794.034 61.82 887Z" fill="white"/>
</g>
</g>
</g>
<defs>
<filter id="filter0_d_60_22" x="-4" y="-23" width="1446" height="1040" filterUnits="userSpaceOnUse" color-interpolation-filters="sRGB">
<feFlood flood-opacity="0" result="BackgroundImageFix"/>
<feColorMatrix in="SourceAlpha" type="matrix" values="0 0 0 0 0 0 0 0 0 0 0 0 0 0 0 0 0 0 127 0" result="hardAlpha"/>
<feOffset dy="4"/>
<feGaussianBlur stdDeviation="2"/>
<feComposite in2="hardAlpha" operator="out"/>
<feColorMatrix type="matrix" values="0 0 0 0 0 0 0 0 0 0 0 0 0 0 0 0 0 0 0.25 0"/>
<feBlend mode="normal" in2="BackgroundImageFix" result="effect1_dropShadow_60_22"/>
<feBlend mode="normal" in="SourceGraphic" in2="effect1_dropShadow_60_22" result="shape"/>
</filter>
<clipPath id="clip0_60_22">
<rect width="1438" height="1009" fill="white"/>
</clipPath>
</defs>
</svg>
